<svg xmlns="http://www.w3.org/2000/svg" xmlns:xlink="http://www.w3.org/1999/xlink" width="297.191" height="34.074" viewBox="0 0 297.191 34.074"><defs><style>            .a{fill:none;}.b{fill:#fff;}.c{clip-path:url(#a);}.d{fill:url(#b);}.e{clip-path:url(#c);}.f{clip-path:url(#d);}.g{fill:url(#e);}        </style><clipPath id="a"><path class="a" d="M122.872-73.5l-7.163,10.067,2.13,3L127.179-73.5Zm-6.824,25.263,6.194,8.615H126.5l-8.325-11.664Z" transform="translate(-115.709 73.5)"></path></clipPath><linearGradient id="b" x1="0.774" y1="0.629" x2="0.822" y2="0.629" gradientUnits="objectBoundingBox"><stop offset="0" stop-color="aqua"></stop><stop offset="0.1" stop-color="#00f3ff"></stop><stop offset="0.2" stop-color="#00e0ff"></stop><stop offset="0.3" stop-color="#00caff"></stop><stop offset="0.4" stop-color="#00b2ff"></stop><stop offset="0.5" stop-color="#0098ff"></stop><stop offset="0.6" stop-color="#007cff"></stop><stop offset="0.7" stop-color="#005eff"></stop><stop offset="0.8" stop-color="#0040ff"></stop><stop offset="0.9" stop-color="#0020ff"></stop><stop offset="1" stop-color="blue"></stop></linearGradient><clipPath id="c"><path class="a" d="M0-39.85H297.191V-73.924H0Z" transform="translate(0 73.924)"></path></clipPath><clipPath id="d"><path class="a" d="M264.808-11.312A3.388,3.388,0,0,0,268.2-7.924h0a3.388,3.388,0,0,0,3.388-3.388h0A3.388,3.388,0,0,0,268.2-14.7h0a3.388,3.388,0,0,0-3.388,3.388" transform="translate(-264.808 14.7)"></path></clipPath><linearGradient id="e" x1="0.368" y1="0.471" x2="0.409" y2="0.471" gradientUnits="objectBoundingBox"><stop offset="0" stop-color="blue"></stop><stop offset="0.1" stop-color="#0019ff"></stop><stop offset="0.2" stop-color="#03f"></stop><stop offset="0.3" stop-color="#004cff"></stop><stop offset="0.4" stop-color="#06f"></stop><stop offset="0.5" stop-color="#0080ff"></stop><stop offset="0.6" stop-color="#09f"></stop><stop offset="0.7" stop-color="#00b3ff"></stop><stop offset="0.8" stop-color="#0cf"></stop><stop offset="0.9" stop-color="#00e6ff"></stop><stop offset="1" stop-color="aqua"></stop></linearGradient></defs><g transform="translate(-181 -23)"><g transform="translate(181 23)"><g transform="translate(0 0.195)"><path class="b" d="M-113.544,0l-12.825,33.878h3.871l10.551-28.312,10.5,28.312h3.872L-110.35,0Zm-24.779,5.13h3.485V0h-3.485Zm0-5.13M-197.8,0l-12.825,33.878h3.872l10.551-28.312,10.5,28.312h3.872L-194.609,0Zm59.479,33.878h3.485V9.631h-3.485Z" transform="translate(210.628)"></path></g><g transform="translate(35.572 0.195)"><path class="b" d="M0,0,12.487,17.423.678,33.878H4.985L16.745,17.423,4.308,0Z"></path></g><g class="c" transform="translate(53.333 0.195)"><g transform="matrix(-0.996, 0.087, -0.087, -0.996, 246.816, 33.619)"><path class="d" d="M296.06,59.846,0,33.944,2.97,0,299.03,25.9Z" transform="translate(0 0)"></path></g></g><g class="e" transform="translate(0)"><path class="b" d="M296.062-70.419h24.679v-3.5H296.062Zm0-3.5M306.625-39.85h3.553V-64.773h-3.553Zm46.924,0-7.691-13.63a10.544,10.544,0,0,0,6.863-9.881,10.348,10.348,0,0,0-10.709-10.563H329.259v3.5h12.753a6.825,6.825,0,0,1,7.058,7.058,6.852,6.852,0,0,1-7.058,7.058H329.259V-39.85h3.5V-52.8h9.444l7.3,12.948Zm22.829-34.074h-3.213l-12.9,34.074h3.894l10.611-28.476L385.334-39.85h3.894Zm31.834,0H397.747v3.5h10.222c8.47,0,13.678,6.084,13.678,13.532,0,7.5-5.013,13.483-13.727,13.483h-6.669V-55.865h-3.5V-39.85h10.465c10.465,0,17.183-7.642,17.183-17.037s-6.571-17.037-17.183-17.037m48.286,0H434.156v3.5H456.5ZM454.99-58.64H434.156v3.5H454.99ZM434.156-39.85h22.635V-43.4H434.156Zm0-3.553" transform="translate(-159.599 73.924)"></path></g><g class="f" transform="translate(122.057 27.298)"><g transform="translate(-139.094 -10.261) rotate(-45)"><path class="g" d="M24.094,0,234.24,210.146,210.146,234.24,0,24.094Z" transform="translate(0 0)"></path></g></g></g></g></svg>