<svg xmlns="http://www.w3.org/2000/svg" id="Group_151861" data-name="Group 151861" width="27.502" height="33.682" viewBox="0 0 27.502 33.682"><path id="Path_115824" data-name="Path 115824" d="M17.785,40.661c-1.791-2.207-5.119-3.934-8.365-5.619-.924-.479-1.8-.932-2.616-1.387a6.192,6.192,0,0,1-2.769-4.6v-18.8c3.716-.163,10.858-.8,13.751-3.284C20.68,9.46,27.821,10.1,31.537,10.263v18.8a6.2,6.2,0,0,1-2.77,4.6c-.819.455-1.692.908-2.617,1.388-3.245,1.684-6.574,3.412-8.366,5.618" transform="translate(-4.035 -6.979)" fill="#d1ab66"></path><path id="Path_115825" data-name="Path 115825" d="M17.785,40.661c-1.859-.016-5.119-3.934-8.365-5.619-.924-.479-1.8-.932-2.616-1.387a6.192,6.192,0,0,1-2.769-4.6v-18.8c3.716-.163,10.858-.8,13.751-3.284C20.68,9.46,27.821,10.1,31.537,10.263v18.8a6.2,6.2,0,0,1-2.77,4.6c-.819.455-1.692.908-2.617,1.388C22.905,36.727,19.577,40.676,17.785,40.661Z" transform="translate(-4.035 -6.979)" fill="#d1ab66"></path><path id="Path_115828" data-name="Path 115828" d="M9.614,20.645c-.754-.007-2.077-1.6-3.394-2.28-.375-.195-.729-.378-1.061-.563a2.512,2.512,0,0,1-1.123-1.865V8.311c1.508-.066,4.405-.326,5.579-1.332,1.174,1.007,4.071,1.266,5.579,1.332v7.626A2.515,2.515,0,0,1,14.07,17.8c-.332.185-.687.368-1.062.563C11.691,19.049,10.341,20.651,9.614,20.645Z" transform="translate(4.137 3.029)" fill="#fff"></path><path id="Path_115826" data-name="Path 115826" d="M37.412,6.992a.243.243,0,0,1-.02-.014c-.031.026-.068.049-.1.074.039-.02.08-.039.119-.06" transform="translate(-23.64 -6.978)" fill="#d1ab66"></path><path id="Path_115827" data-name="Path 115827" d="M37.412,6.992a.243.243,0,0,1-.02-.014c-.031.026-.068.049-.1.074C37.332,7.033,37.373,7.013,37.412,6.992Z" transform="translate(-23.64 -6.978)" fill="#d1ab66"></path></svg>