<?xml version="1.0" encoding="utf-8"?>
<!-- Generator: Adobe Illustrator 23.0.3, SVG Export Plug-In . SVG Version: 6.00 Build 0)  -->
<svg version="1.1" id="Layer_1" xmlns="http://www.w3.org/2000/svg" xmlns:xlink="http://www.w3.org/1999/xlink" x="0px" y="0px"
	 viewBox="0 0 109 110" style="enable-background:new 0 0 109 110;" xml:space="preserve">
<style type="text/css">
	.st0{fill-rule:evenodd;clip-rule:evenodd;fill:#FFFFFF;}
</style>
<path id="Combined-Shape-Copy" class="st0" d="M54.5,110C24.4,110,0,85.3,0,55C0,24.7,24.4,0,54.5,0S109,24.7,109,55
	C109,85.3,84.6,110,54.5,110z M54.5,1.6C25.3,1.6,1.6,25.5,1.6,55c0,29.5,23.8,53.4,52.9,53.4c29.2,0,52.9-24,52.9-53.4
	C107.4,25.5,83.7,1.6,54.5,1.6z M56.2,4.5l2.2,0.2c0.8,0.1,3,0.5,2.6,2.8c-0.2,1.5-1.2,2.3-2.5,2.1l-1.1-0.1l-0.3,0L56.9,13
	l-1.3-0.1L56.2,4.5z M48.3,5l2.2,5.9l0,0l0.9-6.2l1.4-0.1l1.9,8.3L53.3,13l-1-5.8l0,0l-0.9,6l-1,0.1l-2-5.7l0,0l0,5.9l-1.5,0.1
	l0.1-8.5L48.3,5z M65.7,6.9l0.2-1.2l-3.5-0.7l-1.6,8.3l3.5,0.7l0.2-1.2l-2.2-0.4l0.5-2.4l2,0.4L65,9.2l-2-0.4l0.4-2.4L65.7,6.9z
	 M44.3,6.7L44,5.5l-3.5,0.9l2.1,8.2l3.5-0.9l-0.3-1.2l-2.2,0.6L43,10.7l2-0.5l-0.3-1.2l-2,0.5l-0.6-2.3L44.3,6.7z M59.6,7.3
	c0.1-0.8-0.4-1.3-1.3-1.4l-0.9-0.1l-0.2,2.4C58.8,8.4,59.5,8.2,59.6,7.3z M69.9,7l-2.1-0.7l-2.6,8.1l1.3,0.4l1.1-3.4l0.4,0.1l0.7,4
	l1.3,0.4l-0.8-4.2c1.1,0.2,2-0.7,2.3-1.7C72.2,8.1,70.7,7.2,69.9,7z M37.6,8.4c0.5-0.2,0.8-0.2,1.3-0.1l-0.4-1.1
	c-0.5,0-1,0.1-1.5,0.3c-1.5,0.6-1.9,1.8-1.5,2.9c0.8,2.1,3.7,1.3,4.3,2.9c0.2,0.6,0.1,1.2-0.7,1.6c-0.5,0.2-1,0.2-1.5,0.1L38,16
	c0.5,0.1,1.1,0,1.6-0.2c1.5-0.6,2-1.9,1.5-3c-0.4-1.1-1.1-1.4-2.3-1.8l-1.3-0.5c-0.4-0.2-0.6-0.4-0.7-0.7
	C36.6,9.3,36.9,8.7,37.6,8.4z M69.5,8.2c0.8,0.2,1.1,0.8,0.8,1.6c-0.3,0.8-1.2,1-2.4,0.4l0.7-2.3L69.5,8.2z M77.1,9.9l-1.7,6.3l0,0
	l0.3-0.4l4.1-4.4l1.3,0.7l-6.2,6.2l-1.1-0.6l1.9-8.6L77.1,9.9z M30.5,12.3c-0.4,0-0.8,0-1.2,0.2c-0.7,0.4-0.9,1-0.6,1.6
	c0.2,0.3,0.4,0.5,0.8,0.6l1.4,0.3c1.2,0.2,2,0.5,2.5,1.5c0.6,1.1,0.2,2.4-1.2,3.1c-0.5,0.3-1,0.4-1.6,0.4L30,19c0.5,0,1,0,1.4-0.3
	c0.8-0.4,0.9-1.1,0.6-1.6c-0.8-1.5-3.6-0.4-4.6-2.4c-0.5-1.1-0.3-2.3,1.1-3c0.5-0.3,1-0.4,1.5-0.5L30.5,12.3z M77.4,19.9l1.1,0.8
	l4.9-6.9L82.3,13L77.4,19.9z M25.9,21.4l-4-4.6l-1.1,1l3.8,4.3c1,1.1,2,1.9,3.7,0.4c1.9-1.7,0.9-2.7,0.2-3.6l0,0l-3.9-4.5l-1.1,1
	l4.1,4.7c0.4,0.5,0.7,1,0,1.6C27,22.1,26.6,22.2,25.9,21.4z M85.4,15.3l1.7,1.5c0.6,0.5,1.7,1.9,0.4,3.5c-0.6,0.8-1.8,1.2-2.8,0.6
	l-0.9,4.2l-1.1-0.9l0.9-4l-0.3-0.3L81,22.6l-1-0.9L85.4,15.3z M16.1,54.9c0,21.4,17.2,38.8,38.4,38.8c21.2,0,38.4-17.4,38.4-38.8
	c0-21.4-17.2-38.8-38.4-38.8C33.3,16.2,16.1,33.6,16.1,54.9z M86.4,19.4c0.5-0.6,0.5-1.2-0.1-1.8l-0.7-0.6L84,18.9
	C84.9,19.9,85.8,20.1,86.4,19.4z M17.5,54.9c0-20.6,16.6-37.4,37-37.4c20.4,0,37,16.8,37,37.4c0,20.6-16.6,37.4-37,37.4
	C34.1,92.3,17.5,75.5,17.5,54.9z M20.2,19.8L19.3,19l-3.2,3.6l0.9,0.8l1.2-1.3l5.4,4.8l0.9-1L19,21L20.2,19.8z M85.5,27l-0.9-1
	l6.4-5.6l0.9,1L85.5,27z M47.5,33.6c-0.3-0.1-0.5-0.3-0.7-0.5c-0.8-0.7-1.3-1.8-1.3-2.8c0-1.6,1.1-3.2,2.8-3.7
	c-0.6-0.3-1-0.9-1.2-1.6c-0.1-0.7,0.1-1.4,0.6-1.9l0.3-0.3l0.4,0.2c0.7,0.3,1.4,0.4,1.7,0.4c1.3,0,3-0.7,3.9-1.6l0.4-0.4l0.4,0.4
	c1.1,1,2.6,1.6,4,1.6c0.8,0,1.1-0.1,1.5-0.4l0.4-0.2l0.3,0.3c0.5,0.5,0.7,1.2,0.6,1.9c-0.1,0.7-0.6,1.3-1.2,1.6
	c1.7,0.4,2.8,2.1,2.8,3.7c0,1-0.5,2.1-1.3,2.8c-0.2,0.2-0.5,0.4-0.7,0.5c0.1,0.1,0.2,0.2,0.3,0.3l0.3,0.5l-0.5,0.4
	c-0.3,0.3-1,0.9-1.5,2.4c-0.2,0.8-0.7,1.3-1.1,1.7c0.6,0.4,1,1.1,1,1.8c0,1.1-0.8,2-1.9,2.2l0.6,12.9c1.1-0.3,1.9-0.6,2.7-6
	c0.6-4.2,4.9-7.3,7-6.3c-1,0.9-1.9,1.4-2.2,5.3c-0.4,3.9-1.6,5.1-3.2,6.3c1.2,0.1,2.6,0,3.3-1.2c0.9-1.7,1-4.4,1.5-6.4
	c0.4-2.1,1.9-4.2,4.6-5.7c0.3-0.2,0.8-0.5,1-0.9c-0.7,3.9-0.1,5.3-0.8,7.7c-0.8,2.4-2.1,4.2-4.6,5.9c1.7,0,4-0.5,5-1.9
	c0.7-1,0.4-3.9,1.1-6c0.6-2,2.1-5,6.1-6.6c-0.7,2.5-0.2,5.9-0.8,7.7c-0.6,1.9-2,3.4-3.5,4.4c-0.6,0.5-0.9,0.6-0.9,1.1
	c0.9,0.4,3.2-0.4,4.6-2.1c2.1-2.5,3-4.8,8.8-5.5c-0.6,3.1-0.6,6.7-4.2,8.5c-3,1.5-5.2,1.4-6.9,1.2c-0.3,0-0.6,0-0.9-0.1
	c-1.7-0.1-5.5,0-7.3,0.6c2.1,1.1,3.9,0.4,7.1,3.3c3.2,2.9,1.6,7.6-1,10.1c-0.6-4.4-2.4-5.9-4-7.7c-1.7-1.9-2.8-3.5-3.8-4.2
	c-0.9-0.5-3.4-1.2-5.6-0.8c2.1,1.6,2.8,1.3,4.6,3.1c2.6,2.6,2.3,4.5,5.6,7.7c-2.5-0.1-7-0.5-9.4-3.8c-2.4-3.3-1.6-5.3-2.7-6
	c-0.3-0.2-0.6-0.3-0.9-0.3l0.8,15.5h0.9v4.9l5.4,3.8l0,6H43.1v-6l5.4-3.8l0-4.9h0.9l0.7-15c-5.1,1.2-9.4,3.2-13.2,7.9
	c0.1-0.1,0.2-0.1,0.3-0.2c1.3-0.8,4.1-2.6,6.8-2.3c3,0.3,4.4,2.6,5,5.2c-1.3-0.3-2.4-0.2-3.6-0.1c-0.9,0.1-1.9,0.2-3.1,0
	c-1-0.1-1.8-0.3-2.5-0.5c-1.2-0.3-2.1-0.5-3.3-0.2c-1.5,0.4-2,2.3-2,3c2.5-1.6,5-2.6,8-1.8c2.6,0.8,3.3,2.7,4.9,4
	c-0.2,0.1-0.4,0.3-0.5,0.4c-2,1.4-3.3,2.3-6.7,0.5c-3.7-2-5.6-1.9-6.2,0.3c-0.6,2.2,0.7,6.3,2.4,7.6c0.3,0.5,0.6,0.9-0.4,1.1
	c-1.6,0.2-3.5-0.2-4.4-2.9c-0.5-1.5,0-3.2,0.4-4.7c0.4-1.4,0.7-2.8,0.3-3.8c-0.9-2.4-3.4-1.3-4-6c-0.2-1.6-0.1-3-0.1-4.3
	c0-1,0.1-1.8,0-2.6c-0.1-0.5-0.3-1.3-0.8-1.9c1.5,0.1,4,0.7,5.6,4.4c0.8,1.8,0.5,3.6,0.2,5.2c-0.2,1.3-0.4,2.5-0.1,3.5
	c0.8-1.9,1.4-3.3,2-4.3c0.6-1.3,0.5-2.8,0.4-4.4c-0.1-1.2-0.2-2.4,0.1-3.6c0.6-2.6,1.6-5.5,6.4-7.7c-0.6,1.7-0.3,5.2-1,7.3
	c-1.5,4.4-3,4.2-4.4,6.6c0.8-0.3,1.6-1.3,2.4-2.1c0.9-0.8,3.2-1.7,3.7-3.6c0.2-0.8,0.2-1.5,0.1-2.4c-0.1-1.3-0.1-2.9,0.5-5
	c1.2-4.5,4.1-5.6,5.5-7.2c0,0.3,0.1,0.6,0.1,0.9c0.3,1.8,0.6,4.5-0.3,6.9c-1.3,3.4-4.5,6.4-4.8,7.4c0.2,0,0.7-0.2,1.3-0.5
	c1.4-0.5,3.4-1.4,4.8-1.5l0.7-13.6c-1.1-0.2-1.9-1.1-1.9-2.2c0-0.8,0.4-1.4,1-1.8c-0.5-0.4-0.9-1-1.1-1.8c-0.5-1.5-1.1-2.1-1.5-2.4
	l-0.5-0.4l0.3-0.5C47.3,33.8,47.4,33.7,47.5,33.6z M48.4,24.2c-0.1,0.2-0.1,0.4-0.1,0.6c0.1,0.4,0.3,0.7,0.5,0.8
	c0.7,0.4,1.5,0.4,2.1,0.3c0.9-0.1,2.2-0.6,3.2-1.1l0.3-0.1l0.3,0.1c0.9,0.4,2.2,1,3.2,1l0.3,0l0,0c0.7,0,1.3,0.1,1.8-0.2
	c0.3-0.1,0.5-0.4,0.6-0.7c0-0.2,0-0.4-0.1-0.5c-0.5,0.2-0.9,0.3-1.7,0.3c-1.5,0-3.1-0.6-4.4-1.6c-1.1,0.9-2.9,1.6-4.3,1.6
	C49.8,24.5,49.1,24.4,48.4,24.2z M94.4,24.8c0.7,1,2.2,3.2-1.3,5.7c-3.2,2.3-4.5,0.6-5.9-1.3l-0.5-0.8l6.8-4.9L94.4,24.8z M13.6,26
	l-1.3,1.8l6.9,4.9l0.8-1.1L17,29.6l0.3-0.4l4,0.5l0.8-1.1L17.9,28c0.5-1-0.1-2.2-0.9-2.7C15.3,24.1,14.1,25.4,13.6,26z M93.3,25.4
	l-4.8,3.5c1.2,1.8,2.3,1.7,3.9,0.6C93.4,28.7,94.8,27.4,93.3,25.4z M14.6,26.8c0.4-0.7,1.1-0.8,1.7-0.3C17,27,16.9,28,16,28.9
	l-1.9-1.4L14.6,26.8z M56.7,28.2c0.4-0.5,0.8-0.9,1.4-1.2l-0.2,0c-0.6,0-1.4-0.2-2.1-0.5C56.1,27,56.4,27.6,56.7,28.2z M51,27
	c0.5,0.3,0.9,0.7,1.3,1.2c0.2-0.6,0.5-1.1,0.9-1.7c-0.7,0.2-1.4,0.4-1.9,0.5C51.2,27,51.1,27,51,27z M53.2,30.1c0-0.1,0-0.1,0-0.2
	c0-0.1,0-0.3,0-0.4c0-0.7,0.6-2,1.3-3c0.8,1.1,1.3,2.3,1.3,3c0,0.1,0,0.2,0,0.3c0,0.1-0.1,0.2-0.1,0.3l0,0c-0.2,0.6-0.6,1.1-1.2,1.1
	C53.9,31.3,53.4,30.7,53.2,30.1z M54,32.4c-0.9-0.2-1.6-1-1.9-1.9l0,0c0,0,0,0,0-0.1c0-0.1,0-0.1,0-0.2c-0.4-1.3-1.5-2.6-2.9-2.6
	c-1.5,0-2.5,1.4-2.5,2.6c0,0.7,0.4,1.5,0.9,1.9c0.3,0.3,0.8,0.6,1.5,0.5c0.8-0.1,1.2-0.7,1.2-1.5c0-0.6-0.6-0.7-0.7-0.7
	c-0.1,0-0.5,0-0.5,0.3l0,0c-0.1,0.4,0.1,0.6,0.3,0.8c-0.3,0.3-0.7,0.2-1,0.1c-0.3-0.2-0.4-0.5-0.5-0.7c0-0.1,0-0.2,0-0.4l0,0
	c0.2-0.8,0.9-1.3,1.8-1.3c0.8,0.1,1.7,0.7,1.7,1.9c0,0.8-0.2,1.4-0.7,1.9c0,0,0.1,0,0.1,0.1c0.5,0.3,0.9,0.8,1.1,1.2
	c0.2-0.5,0.6-0.9,1.1-1.3c0.1-0.1,0.2-0.2,0.3-0.3C53.6,32.8,53.8,32.6,54,32.4z M58.2,33.1c-0.4-0.5-0.7-1.1-0.7-1.9
	c0-1.1,0.9-1.8,1.7-1.9c0.9-0.1,1.6,0.4,1.8,1.3l0,0c0,0.1,0,0.2,0,0.3c0,0.2-0.2,0.5-0.5,0.7c-0.2,0.1-0.7,0.2-1-0.1
	c0.2-0.2,0.4-0.4,0.3-0.8l0,0c-0.1-0.3-0.4-0.3-0.5-0.3c-0.1,0-0.7,0.1-0.7,0.7c0,0.9,0.4,1.5,1.2,1.6c0.7,0.1,1.2-0.3,1.5-0.5
	c0.5-0.5,0.9-1.3,0.9-1.9c0-1.2-1-2.6-2.5-2.6c-1.4,0-2.5,1.2-2.9,2.5c-0.2,1-0.9,2-2,2.2c0.4,0.4,0.5,0.5,0.8,0.7l-0.3,0.5L55.1,34
	c-0.3-0.2-0.4-0.3-0.6-0.5c-0.1,0.1-0.2,0.2-0.3,0.3c-0.1,0.1-0.2,0.1-0.3,0.2c-0.8,0.6-1.1,1.3-0.8,2l0,0c0.1,0.3,0.4,1-0.2,1.3
	c-0.6,0.3-1-0.6-1.3-1.1c-0.1-0.1-0.1-0.3-0.2-0.4c-0.2-0.6-0.5-1.3-1.1-1.7c-0.7-0.4-1.3-0.2-1.8,0.1c0.5,0.5,1,1.3,1.4,2.5
	c0.4,1.2,1.2,1.7,1.9,1.7h5.3c0.7,0,1.6-0.5,1.9-1.7c0.4-1.2,0.9-2,1.4-2.5c-0.4-0.3-1.1-0.5-1.7-0.1c-0.6,0.4-0.9,1-1.1,1.7
	c-0.1,0.2-0.1,0.3-0.2,0.4c-0.2,0.6-0.6,1.4-1.3,1.1c-0.6-0.3-0.3-1-0.2-1.3l0,0c0.3-0.8,0-1.4-0.7-2l0,0l0.3-0.5l0.3-0.5
	c0.5,0.4,0.9,0.8,1.1,1.3c0.3-0.5,0.6-0.9,1.1-1.2C58.1,33.1,58.1,33.1,58.2,33.1z M91.3,35.3l-0.6-1.2l7.4-4l0.6,1.2L91.3,35.3z
	 M18.2,34.5l-0.6,1.2l-7.5-3.9l0.6-1.2L18.2,34.5z M28.7,30.7c-0.5,0-0.9,0.6-0.9,1.3c0,0.7,0.6,2.5,0.9,2.5c0.3,0,0.9-1.9,0.9-2.5
	C29.6,31.3,29.2,30.7,28.7,30.7z M24.2,40.8c0.3,3.2,2.1,4.7,6.3,5.1l0,1.7c-1.7,0.7-2.4,1.9-2.6,3.1c0,0.2,0,0.3,0.1,0.4
	c0.1,0.1,0.2,0.2,0.4,0.2L39,51.3h0c0.2,0,0.3-0.1,0.4-0.2c0.1-0.1,0.1-0.3,0.1-0.4c-0.3-1.2-1-2.6-3-3.3l0-1.5
	c3.9-0.5,5.1-2.1,5.4-3.2c0,0,0,0,0,0c1.6-0.8,3.6-2.3,3.6-5.5c-0.1-3.4-3-4.3-4-4.4c-0.4,0-1.5,0-2.3,0.7c-0.5,0.4-0.7,1-0.8,1.7
	c-0.1,0.9,0.4,1.6,1.2,2c0.7,0.3,1.4,0.2,1.8-0.2l0.3-0.3c0.1,0,0.2,0.2,0.3,0.7c0.1,0.4,0,0.8-0.3,1c-0.5,0.6-1.7,0.9-3.2,0.8
	c-3.5-0.1-4.6,0.1-5.8,1.6C31.5,41,30.1,41,28.7,41l0.4-0.6c0-0.1,1-1.4,1-2.8c0-1.4-1-2.4-1.1-2.5l-0.4-0.4l-0.4,0.4
	c0,0-1.1,1.1-1.1,2.5c0,1.3,1,2.7,1,2.8l0.4,0.6c-1.5-0.1-2.9-0.3-3.7-0.7l-0.8-0.3L24.2,40.8z M26.4,33.2c-0.4-0.4-1-0.5-1.3-0.1
	c-0.3,0.3-0.2,0.9,0.3,1.4c0.4,0.4,2,1.1,2.2,0.8C27.7,35.1,26.8,33.6,26.4,33.2z M31,33.2c0.4-0.4,1-0.5,1.3-0.1
	c0.3,0.3,0.2,0.9-0.3,1.4c-0.4,0.4-2,1.1-2.2,0.8C29.7,35.1,30.5,33.6,31,33.2z M13.9,38.6l-6.5-0.8l-0.6,1.5l8.7,0.6l0.4-1.2
	l-7-5.3l-0.5,1.4l4.9,3.5L13.9,38.6L13.9,38.6z M44.5,37.2c0,2.1-1,3.5-3.2,4.6c-3.1,0.8-6.5,0.6-7.8-0.3c0.8-1.1,1.3-1.5,5-1.3
	c1.8,0.1,3.3-0.3,4-1.1c0.5-0.5,0.6-1.2,0.5-1.9l0-0.1c-0.2-0.8-0.6-1.3-1.2-1.4c-0.8-0.1-1.1,0.4-1.2,0.6c0,0-0.3,0.1-0.5,0
	c-0.3-0.1-0.7-0.5-0.6-1c0-0.4,0.2-0.7,0.4-1c0.4-0.4,1.1-0.5,1.6-0.5C41.5,33.8,44.4,34.1,44.5,37.2z M99.9,37.7
	c0.1-0.4,0.1-0.8-0.1-1.3c-0.3-0.7-0.9-1-1.4-0.8c-0.3,0.1-0.6,0.3-0.7,0.7l-0.5,1.3c-0.4,1.2-0.7,1.9-1.8,2.3
	c-1.1,0.4-2.4-0.2-2.9-1.7c-0.2-0.5-0.3-1.1-0.1-1.6l1.1-0.4c-0.1,0.5-0.1,1,0.1,1.5c0.3,0.8,0.9,1,1.5,0.8c1.6-0.6,0.9-3.5,3-4.3
	c1.1-0.4,2.3,0,2.8,1.6c0.2,0.5,0.3,1,0.2,1.5L99.9,37.7z M23.5,36.1c0.1-0.4,0.7-0.7,1.2-0.5c0.6,0.1,2,1,2,1.3
	c-0.1,0.3-1.8,0.4-2.3,0.3C23.8,37,23.4,36.5,23.5,36.1z M33.8,36.1c-0.1-0.4-0.7-0.7-1.2-0.5c-0.6,0.1-2,1-2,1.3
	c0.1,0.3,1.8,0.4,2.3,0.3C33.5,37,33.9,36.5,33.8,36.1z M28.7,36.4c-0.2,0.3-0.4,0.8-0.4,1.2c0,0.5,0.2,1,0.4,1.4
	c0.2-0.4,0.4-0.9,0.4-1.4C29,37.2,28.8,36.7,28.7,36.4z M58.8,40.7c0,0.5-0.4,1-1,1.1h-6.7c-0.6-0.1-1-0.6-1-1.1
	c0-0.6,0.6-1.1,1.2-1.1h6.2C58.3,39.6,58.8,40.1,58.8,40.7z M35.9,44.9c2.4-0.3,4-0.9,4.7-1.8c-1.1,0.2-2.2,0.3-3.3,0.3
	c-2.2,0-4.1-0.5-4.9-1.5c-2.4,0.4-5.2,0.1-7-0.4c0.4,1.8,1.6,3,5.2,3.3H35.9z M77.1,45.6c-0.1,0.2-0.6,0.8-1,2.4
	c-0.3,1.2-1,2.9-1.9,4c0.1-1,0.1-4.3,1.1-6.3c0.9-1.8,2.2-3.3,3.7-4.1c-0.1,0.8-0.1,1.6-0.1,2.3c0,1.2,0,2.3-0.4,3.5
	c-0.3,1.1-1.2,3-3.4,4.3c0.5-0.7,1.4-2.6,1.6-3.6c0.3-0.9,0.4-1.8,0.6-2.2C77.6,45.5,77.3,45.3,77.1,45.6z M58.4,72.8h-7.9L52,43H57
	L58.4,72.8z M68.9,51.2c0.2-0.7,0.5-1.8,0.7-2.4c0.2-0.6,1.1-1.8,1.2-2c0.2-0.3,0.4-0.4,0.2,0.3c-0.2,0.6-0.3,1.1-0.6,2
	c-0.3,0.9-1.1,2.7-1.7,4c2.4-1.8,2.6-3.4,2.9-4c0.3-0.6,0.9-3.5,0.6-6.1c-1.7,1-3.3,2.6-3.6,4.8c-0.3,1.9-0.9,4.5-1.1,5.5
	C68.2,52.8,68.7,51.9,68.9,51.2z M102.2,50.4c-0.5-0.1-0.6-0.4-1-0.5c-0.2,0-0.3,0.1-0.3,0.2c0.1,0.4,0.4,0.2,0.6,0.9
	c0.3,0.8-0.2,1.2-0.7,1.7c-0.3,0.3-0.6,0.6-0.8,1c0,0.1-0.1,0.1-0.2,0l0,0c-0.2-0.4-0.6-0.6-0.9-0.9c-0.5-0.4-1-0.8-0.9-1.6
	c0.2-0.7,0.4-0.5,0.4-0.9c0-0.1-0.1-0.3-0.3-0.2c-0.4,0.1-0.2,0.3-0.9,0.5c-0.8,0.3-1.2-0.2-1.7-0.7c-0.3-0.3-0.6-0.6-1-0.8
	c-0.1,0-0.1-0.1,0-0.2l0,0c0.4-0.2,0.6-0.6,0.9-0.9c0.4-0.6,0.8-1.1,1.6-0.9c0.6,0.1,0.6,0.5,0.9,0.5c0.1,0,0.3-0.1,0.2-0.3
	c-0.1-0.4-0.5-0.4-0.6-0.9c-0.3-0.8,0.2-1.2,0.7-1.6c0.3-0.3,0.6-0.6,0.8-1c0-0.1,0.1-0.1,0.2,0h0c0.2,0.4,0.6,0.6,0.9,0.9
	c0.5,0.4,1,0.8,0.9,1.6c-0.2,0.6-0.4,0.5-0.4,1c0,0.2,0.1,0.3,0.3,0.2c0.4-0.1,0.3-0.4,0.9-0.6c0.8-0.3,1.2,0.2,1.6,0.7
	c0.3,0.3,0.6,0.6,1,0.8c0.1,0,0.1,0.1,0,0.2v0c-0.4,0.2-0.6,0.6-0.9,0.9C103.3,50.1,103,50.6,102.2,50.4z M64.1,48.9
	c-0.4,0.4-0.8,1.7-0.9,2.2c-0.2,0.6-0.9,2.5-1.9,3.5c0.5-1.6,1.1-5.2,1.4-6.2c0.5-1.3,2.2-3.4,3.8-3.9c-1.2,2.3-0.9,4.4-1.3,6.2
	c-0.4,1.6-1.1,3-3,4.1c0.4-1,1.4-2.5,1.7-3.4c0.2-0.8,0.4-2,0.6-2.2C64.5,48.9,64.5,48.4,64.1,48.9z M7.4,51.1
	c-0.1,0.4-0.4,0.2-0.7,0.8c-0.3,0.7,0.1,1.2,0.5,1.7c0.3,0.3,0.6,0.6,0.7,1.1c0,0.1,0.1,0.1,0.2,0l0,0c0.3-0.3,0.6-0.6,1-0.8
	c0.6-0.4,1.1-0.7,1-1.5C10,52.1,9.9,52,9.8,51.9c-0.1-0.1-0.1-0.2-0.1-0.4c0-0.1,0.1-0.3,0.3-0.2c0.4,0.1,0.2,0.3,0.8,0.6
	c0.7,0.3,1.2-0.1,1.7-0.5c0.3-0.3,0.6-0.5,1-0.7c0.1,0,0.1-0.1,0-0.2l0,0c-0.4-0.3-0.6-0.6-0.8-1c-0.3-0.6-0.7-1.1-1.5-1
	c-0.6,0.1-0.6,0.4-1,0.4c-0.1,0-0.3-0.2-0.2-0.3c0.1-0.4,0.5-0.3,0.7-0.9c0.3-0.7-0.1-1.2-0.5-1.7C10,45.7,9.7,45.4,9.6,45
	c0-0.1-0.1-0.1-0.2,0l0,0c-0.3,0.4-0.6,0.6-1,0.8c-0.6,0.3-1.1,0.7-1,1.5c0.1,0.6,0.3,0.6,0.3,1c0,0.2-0.1,0.2-0.3,0.2
	c-0.4-0.1-0.3-0.4-0.9-0.6c-0.7-0.3-1.2,0.1-1.7,0.5c-0.3,0.3-0.6,0.6-1,0.7c-0.1,0-0.1,0.1,0,0.2l0,0c0.4,0.3,0.6,0.6,0.8,1
	c0.3,0.6,0.7,1.1,1.5,1c0.5-0.1,0.6-0.4,1-0.4C7.3,50.8,7.5,50.9,7.4,51.1z M45.9,50.4c-0.2,0.4-0.6,1.9-0.8,2.5
	c-0.1,0.6-1,3.3-1.3,3.7c0-0.3,0-0.6-0.1-0.9c-0.1-1.7-0.2-2.7,0.4-5c0.7-2.8,3.2-4.8,4-5.6c0.7,4.1,0.2,5.6-1.4,8
	c-1.1,1.7-1.7,2.7-2,2.9c0.2-0.8,0.9-2.5,1.2-3.5c0.3-1,0.4-1.9,0.3-2.2C46.4,50,46.1,50,45.9,50.4z M31.5,47.1l0-1.1
	c0.6,0,1.2,0,1.8,0c0.8,0,1.5,0,2.1-0.1l0,1.1h-0.3C34.7,47,34.3,47,33.8,47c-0.5,0-1,0-1.5,0.1H31.5z M81.5,52.2
	c0.6-0.4,2-1.5,2.4-1.8c0.2-0.3,0.9-0.5,0.4,0.3c-0.6,0.9-1.3,1.3-2.6,2.1c-1.3,0.8-4.1,1.6-5.3,1.8c3.1,0.4,5.4,0,7.5-1.3
	c2.1-1.3,2.9-3.4,3.1-6.4c-2.1,0.3-4.4,1.2-5.6,3.2c-1.2,2-3.5,3.2-4.6,3.7C79.5,53.4,80.8,52.7,81.5,52.2z M101,48.8
	c0-0.7-0.7-1.3-1.4-1.3c-0.7,0-1.3,0.7-1.2,1.4c0,0.7,0.7,1.3,1.4,1.3C100.5,50.2,101.1,49.5,101,48.8z M32.4,48.2h2.8
	c1.6,0.2,2.6,0.9,3.1,2.1l-9.2,0C29.6,49.1,30.7,48.4,32.4,48.2z M10.1,50.1c-0.1,0.7-0.8,1.2-1.5,1.1c-0.7-0.1-1.2-0.8-1.1-1.5
	c0.1-0.7,0.8-1.2,1.5-1.1C9.7,48.6,10.2,49.3,10.1,50.1z M37.4,58.6c0.2-0.6,0.7-1.7,1.4-2.9c0.5-0.7,0.8,0,0.5,0.5
	c-0.2,0.2-0.6,1.2-0.8,1.9c-0.3,0.9-1,2.6-1.1,3.8c1.5-1.3,2.2-2.3,3.3-5c0.5-1.3,0.5-2.5,0.5-3.7c0-0.7,0-1.4,0.1-2
	c-2.2,1.4-3.2,2.4-3.9,3.8c-0.7,1.4-1.4,3.6-0.8,6.8C36.8,61.1,37.2,59.2,37.4,58.6z M74.5,61.8c-0.2-0.4-0.7-1.4-1.5-2.1
	c-0.9-0.6-2.8-2.3-3.5-2.7c2.8,0.7,5.3,1.7,6.6,3.4c1.2,1.6,1.5,4-0.5,7.2c-0.6-2.5-1.1-3.8-2.8-5.4c-0.7-0.7-3.2-3.3-4-4.7
	c0.9,0.5,3.5,2.4,3.9,2.8c0.4,0.4,1.5,1.5,1.6,1.7C74.4,62.2,74.7,62.3,74.5,61.8z M30.8,62.3c0.2,0.6,0.4,2.2,0.4,2.7
	s0,3.1,0.5,4.2c-2.2-1.6-2.7-3.1-2.6-5.1c0-0.1,0-0.2,0-0.3c0.1-2.1,0.2-5.3-0.3-6.3c3.5,2,5.2,4.2,3.4,10.9
	c-0.3-1.1-0.3-3.7-0.5-5.2c-0.1-0.7-0.3-1.2-0.6-1.4C31,61.8,30.6,61.8,30.8,62.3z M95.7,59.3l7.1,1l0.4-2.6l1.2,0.2l-0.5,4
	l-8.3-1.2L95.7,59.3z M60.9,58.2c0.5,1.8,1.2,4.5,2.8,5.8c1.8,1.5,3.3,2,6.2,2.5c-1.5-1.6-2.5-4.4-3.6-5.5c-1.1-1.1-2.8-2.5-4.6-3.2
	c1.1,1,3,3.3,3.4,4.2c0.5,0.9,0.9,1.3,1.1,1.4c0.1,0.1,0.2,0.4-0.1,0.3c-0.3-0.1-1.5-1.4-1.8-1.8c-0.3-0.4-1.1-1.5-1.6-2.1
	C62.2,59.1,61.3,58.5,60.9,58.2z M13.5,62.2l-1.2,0.1l-0.2-1.5L5,61.9l-0.3-1.3l7.1-1.1l-0.2-1.6l1.2-0.1L13.5,62.2z M103,67
	c0.8-2.4-1.8-3.8-3.2-4.2c-1.4-0.4-4.3-0.7-5,1.7c-0.7,2.3,1.8,3.8,3.2,4.2C99.4,69.2,102.3,69.4,103,67z M14.1,64.6l-3.4,0.9
	l0.6,2.7l3.4-0.9l0.4,1.2l-8.1,2.1l-0.4-1.2l3.6-0.9l-0.6-2.7l-3.6,0.9l-0.3-1.2l8.1-2.1L14.1,64.6z M101.9,66.7
	c-0.3,1-1.8,1.2-3.5,0.6c-1.7-0.5-2.8-1.3-2.5-2.5c0.3-1.1,1.7-1.2,3.4-0.7C101.1,64.7,102.3,65.6,101.9,66.7z M43.1,65.7
	c-0.9-0.2-1.9-0.2-2.5,0c-0.6,0.1-2.4,0.3-3.1,0.5c1.4-0.8,4.7-2.6,6.8-2.1c2.7,0.6,3.3,2.8,3.6,3.5c-0.9,0-2,0-3,0.1
	c-0.9,0-1.7,0.1-2.2,0.1c-0.9-0.1-3.5-0.9-5.1-0.9c1.2-0.3,3-0.6,4.2-0.5c1.2,0.1,1.2,0.1,1.4,0.1C43.5,66.3,44,65.9,43.1,65.7z
	 M97.9,69.7c1.4,0.6,3.8,2.3,2.7,4.6c-1,2.2-3.8,1.7-5.2,1.1c-1.4-0.6-3.7-2.4-2.7-4.6C93.7,68.5,96.5,69.1,97.9,69.7z M40.7,70.8
	c0.7,0.3,1.6,0.7,1.9,1c0.3,0.3,0.1,0.5,0,0.4c-1.2-0.5-1.8-0.5-2.4-0.7c-1.2-0.5-2.6-0.6-4.6,0.1c1.9-0.1,3.5,0.6,5.4,1.6
	c0.1,0.1,0.3,0.1,0.4,0.2c2.5,1.2,3.4,0.4,4.8-0.7l0,0c-0.9-0.7-1.9-2.6-4.3-3.2c-2.1-0.6-4.8,0.4-6.4,1.5c0.2,0,0.4-0.1,0.6-0.1
	C37.7,70.5,39.3,70.3,40.7,70.8z M17.2,73.7l-0.9,0.4l-1-2.5l-2.4,1l0.9,2.2l-0.9,0.4L11.9,73l-2.6,1.1l1,2.5l-0.9,0.4L7.8,73
	l7.8-3.2L17.2,73.7z M77,74.8c0-2.8,1-4.3,2.5-4.3c1.5,0,2.5,1.5,2.5,4.3c0,2.8-1,4.3-2.5,4.3C78.1,79.1,77,77.6,77,74.8z
	 M71.7,76.6c0,1.5-1,2.5-2.4,2.5s-2.4-1-2.4-2.5c0-1.1,0.5-1.6,0.9-2.1c-0.4-0.5-0.7-1-0.7-1.9c0-1.2,0.9-2.1,2.1-2.1
	c1.2,0,2.1,0.8,2.1,2.1c0,1-0.4,1.6-0.8,1.9C71,74.7,71.7,75.3,71.7,76.6z M96,74c1.6,0.7,3.1,0.7,3.6-0.2c0.5-1.1-0.6-2.1-2.2-2.8
	c-1.6-0.7-3-0.7-3.5,0.3C93.4,72.4,94.4,73.3,96,74z M62.2,71.7v-1.1h2.4v8.3h-1.1v-7.2H62.2z M72.5,71.7v-1.1H75v8.3h-1.1v-7.2
	H72.5z M79.6,71.5c-0.9,0-1.4,1.1-1.4,3.3c0,2.2,0.5,3.3,1.4,3.3c0.9,0,1.4-1.1,1.4-3.3C81,72.6,80.5,71.5,79.6,71.5z M70.2,72.6
	c0-0.7-0.4-1.1-1-1.1c-0.6,0-1,0.4-1,1.1c0,0.7,0.4,1.1,1,1.1C69.9,73.8,70.2,73.3,70.2,72.6z M49.7,74l0,3.5h9.7V74H49.7z M95,77.9
	l3,1.9l0.6-1l-7.1-4.5l-0.6,1l3.2,2l-1.5,2.3l-3.2-2l-0.6,1.1l7.1,4.5l0.6-1.1l-3-1.9L95,77.9z M69.3,78c-0.8,0-1.3-0.6-1.3-1.5
	c0-0.9,0.5-1.5,1.3-1.5c0.8,0,1.3,0.6,1.3,1.5C70.5,77.5,70.1,78,69.3,78z M34.8,81.5c-1.5-1.5-1.6-4.6-1.7-6.1c0,0,0,0.1,0,0.1
	c-0.4,1.5-0.6,2.4-0.2,4C33,80.4,33.5,81,34.8,81.5z M14,82.3l6-4l-0.8-1.1l-7,4.6l2.2,3.3l1-0.6L14,82.3z M45.2,81.5l3.9-2.8h10.7
	l4,2.8H45.2z M87.8,81.6c0.2-0.3,0.9-0.8,1.7-0.7l-1-0.8c-0.7,0.3-1.2,0.6-1.5,1c-1.7,2.3-0.1,4.3,1.5,5.5c1.6,1.2,3.9,1.8,5.5-0.4
	c0.3-0.4,0.5-1,0.5-1.6l-1.1-0.8c0.1,0.7,0,1.4-0.2,1.7c-1.3,1.7-2.8,0.7-3.9,0C88.2,84.6,86.6,83.2,87.8,81.6z M23.7,83.2l-4.6,7.6
	l-0.9-1.1l1.1-1.7l-1.6-1.9L15.8,87l-0.9-1.1l8-3.7L23.7,83.2z M44.3,86.4v-3.7h20.4l0,3.7H44.3z M22.1,83.7l-3.3,1.9l1.2,1.4
	L22.1,83.7z M84.3,85.6c0.3-0.3,0.7-0.5,1.1-0.6l-0.8-0.8c-0.5,0.2-0.9,0.5-1.3,0.8c-1.2,1.1-1.1,2.4-0.3,3.2C84,89.1,85,89,86,88.9
	c0.9-0.1,1.7-0.2,2.2,0.4c0.4,0.5,0.5,1.1-0.1,1.7c-0.4,0.4-0.8,0.5-1.3,0.7l0.8,0.8c0.5-0.1,1-0.4,1.4-0.8c1.1-1.1,1.1-2.5,0.3-3.4
	c-0.8-0.8-1.6-0.9-2.8-0.7l-1.4,0.1c-0.4,0-0.7-0.1-0.9-0.4C83.8,86.8,83.8,86.1,84.3,85.6z M25.8,85.2l-3,5.4l4.9-3.8l0.9,0.8
	L25.7,93l4.6-4l1,0.9l-6.7,5.4l-0.9-0.8l2.8-5.4l-4.7,3.7l-1-0.8l4-7.7L25.8,85.2z M78.6,89.3l0.6,1l-1.9,1.2l1.3,2l1.7-1.1l0.6,1
	l-1.7,1.1l1.3,2.1l1.9-1.2l0.7,1l-3,1.9l-4.5-7.2L78.6,89.3z M32.1,90.3l1.9,1.2c0.7,0.4,2,1.6,1,3.4c-0.5,0.8-1.6,1.5-2.6,1.1
	l-0.2,4.3l-1.2-0.7l0.2-4.1l-0.4-0.2l-1.8,3.1l-1.1-0.7L32.1,90.3z M33.7,94.2c0.4-0.7,0.2-1.3-0.4-1.7l-0.7-0.4l-1.2,2.1
	C32.3,94.9,33.2,94.9,33.7,94.2z M76.1,99L73,92.5l-1.2,0.6l3.6,7.7L79,99l-0.5-1.1L76.1,99z M40.5,94.5L40,95.6L38,94.7L37,96.9
	l1.9,0.8l-0.4,1.1L36.6,98l-1,2.3l2.1,0.9l-0.5,1.1l-3.3-1.4l3.2-7.8L40.5,94.5z M69.2,94.2l2.3,6.9l2.5-0.8l0.4,1.1l-3.7,1.3
	l-2.7-8L69.2,94.2z M39.5,103.1l1.4,0.3l1.2-5.3l1.3,5.9l1.3,0.3l2-8.2l-1.4-0.4l-1.3,5.2l-1.3-5.9l-1.3-0.3L39.5,103.1z
	 M68.4,103.4l-1.3,0.3L65,95.6l1.3-0.3L68.4,103.4z M59.2,96.6l2.5,6.1l0,0l0-0.5l0.6-6l1.5-0.2l-1.1,8.8l-1.3,0.2l-3.8-8L59.2,96.6
	z M52.2,98.8c-0.3-0.7-1.1-1-1.5-1.1c-2-0.2-2.4,1.9-2.5,3.2c-0.1,1.3-0.2,3.1,1.9,3.4c0.4,0,1-0.2,1.6-0.6l-0.1,1.3
	c-0.5,0.3-1.2,0.4-1.6,0.3c-2.7-0.3-3.3-2.6-3.1-4.6c0.2-2,1.1-4.4,4-4.1c0.5,0.1,1,0.3,1.6,0.8L52.2,98.8z M56.9,98.1l0-1.2l-3.6,0
	l0.1,8.5l3.6,0l0-1.2l-2.3,0l0-2.5l2,0l0-1.2l-2,0l0-2.4L56.9,98.1z"/>
</svg>
