<?xml version="1.0" encoding="UTF-8"?>
<!DOCTYPE svg PUBLIC "-//W3C//DTD SVG 1.1//EN" "http://www.w3.org/Graphics/SVG/1.1/DTD/svg11.dtd">
<!-- Creator: CorelDRAW -->
<svg xmlns="http://www.w3.org/2000/svg" xml:space="preserve" width="181.863mm" height="110.867mm" style="shape-rendering:geometricPrecision; text-rendering:geometricPrecision; image-rendering:optimizeQuality; fill-rule:evenodd; clip-rule:evenodd"
viewBox="0 0 181.864 110.867"
 xmlns:xlink="http://www.w3.org/1999/xlink">
 <defs>
  <style type="text/css">
   <![CDATA[
    .fil0 {fill:#1F2A4F}
    .fil1 {fill:#7F7F7F}
   ]]>
  </style>
 </defs>
 <g id="Layer_x0020_1">
  <metadata id="CorelCorpID_0Corel-Layer"/>
  <g id="_128859792">
   <path id="_128510000" class="fil0" d="M126.43 7.76813c17.3255,0 32.4951,9.24863 40.8401,23.0771l6.72912 -3.88521c-9.68903,-16.1496 -27.3691,-26.96 -47.5693,-26.96 -29.3212,0 -53.3329,22.7773 -55.3029,51.5994 -0.0865003,1.2667 -0.1306,2.54531 -0.1306,3.83401 0,1.2887 0.0441001,2.56741 0.1306,3.83431 0.746102,10.9102 4.65112,20.9539 10.806,29.2241 2.04321,-1.64011 3.93171,-3.46491 5.63922,-5.45022 -4.84992,-6.81342 -7.95333,-14.9558 -8.65563,-23.7739 -0.1006,-1.2648 -0.152001,-2.54371 -0.152001,-3.83431 0,-1.2906 0.0514002,-2.56921 0.152001,-3.83401 1.95321,-24.5281 22.4836,-43.8312 47.5133,-43.8312zm55.3031 51.4996c0.0865003,-1.2669 0.1306,-2.54561 0.1306,-3.83431 0,-1.2887 -0.0441001,-2.56731 -0.1306,-3.83401l-7.78963 0 -63.2072 0 -7.78963 0c0.1006,1.2648 0.152001,2.54341 0.152001,3.83401 0,1.2906 -0.0514002,2.56951 -0.152001,3.83431l7.78963 0 63.2072 0c-1.95341,24.5284 -22.4836,43.8312 -47.5135,43.8312 -9.39383,0 -18.1527,-2.72021 -25.5348,-7.41402 -1.75651,1.98201 -3.63791,3.85061 -5.63652,5.58872 8.88243,6.05322 19.614,9.59343 31.1713,9.59343 29.3214,0 53.3331,-22.777 55.3031,-51.5994z"/>
   <path id="_128509760" class="fil1" d="M102.223 64.5618c-4.26051,21.9548 -23.5908,38.5371 -46.7892,38.5371 -26.3203,0 -47.6653,-21.345 -47.6653,-47.6656 0,-26.3203 21.345,-47.6653 47.6653,-47.6653 9.39413,0 18.1535,2.72051 25.5356,7.41432 1.75631,-1.98231 3.63741,-3.85091 5.63602,-5.58892 -8.88253,-6.05322 -19.6141,-9.59353 -31.1716,-9.59353 -30.6099,0 -55.4334,24.8235 -55.4334,55.4334 0,30.6102 24.8235,55.4337 55.4334,55.4337 27.501,0 50.3306,-20.037 54.6849,-46.3053l-7.89573 0z"/>
  </g>
 </g>
</svg>
