<?xml version="1.0" encoding="utf-8"?>
<!-- Generator: Adobe Illustrator 23.0.3, SVG Export Plug-In . SVG Version: 6.00 Build 0)  -->
<svg version="1.1" id="Layer_1" xmlns="http://www.w3.org/2000/svg" xmlns:xlink="http://www.w3.org/1999/xlink" x="0px" y="0px"
	 viewBox="0 0 256 257" style="enable-background:new 0 0 256 257;" xml:space="preserve">
<style type="text/css">
	.st0{clip-path:url(#SVGID_2_);}
	.st1{fill:none;stroke:#8C182B;stroke-width:2;}
	.st2{clip-path:url(#SVGID_4_);}
	.st3{clip-path:url(#SVGID_6_);}
	.st4{fill:none;stroke:#8C182B;stroke-width:2;stroke-opacity:0.9;}
	.st5{clip-path:url(#SVGID_8_);}
	.st6{fill:none;stroke:#8C182B;stroke-width:2;stroke-opacity:0.8;}
	.st7{clip-path:url(#SVGID_10_);}
	.st8{fill:none;stroke:#8C182B;stroke-width:2;stroke-opacity:0.7;}
	.st9{clip-path:url(#SVGID_12_);}
	.st10{fill:none;stroke:#8C182B;stroke-width:2;stroke-opacity:0.5;}
	.st11{clip-path:url(#SVGID_14_);}
	.st12{fill:none;stroke:#8C182B;stroke-width:2;stroke-opacity:0.4;}
	.st13{clip-path:url(#SVGID_16_);}
	.st14{fill:none;stroke:#8C182B;stroke-width:2;stroke-opacity:0.3;}
	.st15{clip-path:url(#SVGID_18_);}
	.st16{fill:none;stroke:#8C182B;stroke-width:2;stroke-opacity:0.2;}
	.st17{clip-path:url(#SVGID_20_);}
	.st18{fill:none;stroke:#8C182B;stroke-width:2;stroke-opacity:0.1;}
	.st19{clip-path:url(#SVGID_22_);}
	.st20{fill:none;stroke:#8C182B;stroke-width:2;stroke-opacity:0.6;}
</style>
<g>
	<defs>
		<circle id="SVGID_1_" cx="128" cy="128" r="62"/>
	</defs>
	<clipPath id="SVGID_2_">
		<use xlink:href="#SVGID_1_"  style="overflow:visible;"/>
	</clipPath>
	<g class="st0">
		<path id="path_1" class="st1" d="M128,190c34.2,0,62-27.8,62-62s-27.8-62-62-62s-62,27.8-62,62S93.8,190,128,190z"/>
	</g>
</g>
<g>
	<defs>
		<circle id="SVGID_3_" cx="127.5" cy="127.5" r="68.5"/>
	</defs>
	<clipPath id="SVGID_4_">
		<use xlink:href="#SVGID_3_"  style="overflow:visible;"/>
	</clipPath>
	<g class="st2">
		<path id="path_2" class="st1" d="M127.5,196c37.8,0,68.5-30.7,68.5-68.5c0-37.8-30.7-68.5-68.5-68.5C89.7,59,59,89.7,59,127.5
			C59,165.3,89.7,196,127.5,196z"/>
	</g>
</g>
<g>
	<defs>
		<ellipse id="SVGID_5_" cx="128" cy="128.5" rx="75" ry="75.5"/>
	</defs>
	<clipPath id="SVGID_6_">
		<use xlink:href="#SVGID_5_"  style="overflow:visible;"/>
	</clipPath>
	<g class="st3">
		<path id="path_3" class="st4" d="M128,204c41.4,0,75-33.8,75-75.5c0-41.7-33.6-75.5-75-75.5c-41.4,0-75,33.8-75,75.5
			C53,170.2,86.6,204,128,204z"/>
	</g>
</g>
<g>
	<defs>
		<ellipse id="SVGID_7_" cx="127.5" cy="128" rx="81.5" ry="82"/>
	</defs>
	<clipPath id="SVGID_8_">
		<use xlink:href="#SVGID_7_"  style="overflow:visible;"/>
	</clipPath>
	<g class="st5">
		<path id="path_4" class="st6" d="M127.5,210c45,0,81.5-36.7,81.5-82c0-45.3-36.5-82-81.5-82C82.5,46,46,82.7,46,128
			C46,173.3,82.5,210,127.5,210z"/>
	</g>
</g>
<g>
	<defs>
		<circle id="SVGID_9_" cx="128.5" cy="128.5" r="88.5"/>
	</defs>
	<clipPath id="SVGID_10_">
		<use xlink:href="#SVGID_9_"  style="overflow:visible;"/>
	</clipPath>
	<g class="st7">
		<path id="path_5" class="st8" d="M128.5,217c48.9,0,88.5-39.6,88.5-88.5c0-48.9-39.6-88.5-88.5-88.5C79.6,40,40,79.6,40,128.5
			C40,177.4,79.6,217,128.5,217z"/>
	</g>
</g>
<g>
	<defs>
		<ellipse id="SVGID_11_" cx="128.5" cy="128" rx="101.5" ry="102"/>
	</defs>
	<clipPath id="SVGID_12_">
		<use xlink:href="#SVGID_11_"  style="overflow:visible;"/>
	</clipPath>
	<g class="st9">
		<path id="path_6" class="st10" d="M128.5,230c56.1,0,101.5-45.7,101.5-102S184.6,26,128.5,26C72.4,26,27,71.7,27,128
			S72.4,230,128.5,230z"/>
	</g>
</g>
<g>
	<defs>
		<ellipse id="SVGID_13_" cx="128" cy="127.5" rx="108" ry="108.5"/>
	</defs>
	<clipPath id="SVGID_14_">
		<use xlink:href="#SVGID_13_"  style="overflow:visible;"/>
	</clipPath>
	<g class="st11">
		<path id="path_7" class="st12" d="M128,236c59.6,0,108-48.6,108-108.5C236,67.6,187.6,19,128,19C68.4,19,20,67.6,20,127.5
			C20,187.4,68.4,236,128,236z"/>
	</g>
</g>
<g>
	<defs>
		<circle id="SVGID_15_" cx="128" cy="128" r="115"/>
	</defs>
	<clipPath id="SVGID_16_">
		<use xlink:href="#SVGID_15_"  style="overflow:visible;"/>
	</clipPath>
	<g class="st13">
		<path id="path_8" class="st14" d="M128,243c63.5,0,115-51.5,115-115c0-63.5-51.5-115-115-115C64.5,13,13,64.5,13,128
			C13,191.5,64.5,243,128,243z"/>
	</g>
</g>
<g>
	<defs>
		<ellipse id="SVGID_17_" cx="127.5" cy="128" rx="121.5" ry="122"/>
	</defs>
	<clipPath id="SVGID_18_">
		<use xlink:href="#SVGID_17_"  style="overflow:visible;"/>
	</clipPath>
	<g class="st15">
		<path id="path_9" class="st16" d="M127.5,250c67.1,0,121.5-54.6,121.5-122C249,60.6,194.6,6,127.5,6C60.4,6,6,60.6,6,128
			C6,195.4,60.4,250,127.5,250z"/>
	</g>
</g>
<g>
	<defs>
		<ellipse id="SVGID_19_" cx="128" cy="128.5" rx="128" ry="128.5"/>
	</defs>
	<clipPath id="SVGID_20_">
		<use xlink:href="#SVGID_19_"  style="overflow:visible;"/>
	</clipPath>
	<g class="st17">
		<path id="path_10" class="st18" d="M128,257c70.7,0,128-57.5,128-128.5C256,57.5,198.7,0,128,0C57.3,0,0,57.5,0,128.5
			C0,199.5,57.3,257,128,257z"/>
	</g>
</g>
<g>
	<defs>
		<ellipse id="SVGID_21_" cx="128" cy="127.5" rx="95" ry="95.5"/>
	</defs>
	<clipPath id="SVGID_22_">
		<use xlink:href="#SVGID_21_"  style="overflow:visible;"/>
	</clipPath>
	<g class="st19">
		<path id="path_11" class="st20" d="M128,223c52.5,0,95-42.8,95-95.5c0-52.7-42.5-95.5-95-95.5c-52.5,0-95,42.8-95,95.5
			C33,180.2,75.5,223,128,223z"/>
	</g>
</g>
</svg>
