<?xml version="1.0" encoding="utf-8"?>
<!-- Generator: Adobe Illustrator 23.0.3, SVG Export Plug-In . SVG Version: 6.00 Build 0)  -->
<svg version="1.1" id="Layer_1" xmlns="http://www.w3.org/2000/svg" xmlns:xlink="http://www.w3.org/1999/xlink" x="0px" y="0px"
	 viewBox="0 0 61.7 29.8" style="enable-background:new 0 0 61.7 29.8;" xml:space="preserve">
<style type="text/css">
	.st0{fill:#B28C40;}
</style>
<path class="st0" d="M61.7,29.8L30.8,0L16.5,13.9l-0.3,0.2c0,0,0,0,0,0L0,29.8H61.7z M2.5,28.8l8.7-8.4c1.9,2.4,3,5.3,3.1,8.4H2.5z
	 M38.6,28.8h-7.2c0.1-7.2,2.8-14.1,7.6-19.6l5.2,5C40.6,18.3,38.7,23.4,38.6,28.8z M44.8,14.9l5,4.8c-2.1,2.6-3.2,5.8-3.3,9.1h-6.9
	C39.7,23.7,41.5,18.8,44.8,14.9z M31.3,21.4V1.9l6.9,6.6C34.9,12.2,32.6,16.6,31.3,21.4z M30.3,21.4c-1.2-4.7-3.6-9.2-6.9-12.9
	l6.9-6.6V21.4z M30.3,28.8h-7.2C23,23.4,21,18.3,17.6,14.2l5.2-5C27.6,14.6,30.2,21.5,30.3,28.8z M47.5,28.8c0.1-3,1.2-6,3.1-8.4
	l8.7,8.4H47.5z M22.1,28.8h-6.9c-0.1-3.3-1.3-6.5-3.3-9.1l5-4.8C20.1,18.8,22,23.6,22.1,28.8z"/>
</svg>
