<?xml version="1.0" encoding="utf-8"?>
<!-- Generator: Adobe Illustrator 23.0.3, SVG Export Plug-In . SVG Version: 6.00 Build 0)  -->
<svg version="1.1" id="Layer_1" xmlns="http://www.w3.org/2000/svg" xmlns:xlink="http://www.w3.org/1999/xlink" x="0px" y="0px"
	 viewBox="0 0 82.3 56" style="enable-background:new 0 0 82.3 56;" xml:space="preserve">
<style type="text/css">
	.st0{fill:#B28C40;}
</style>
<path class="st0" d="M82.3,47.6L67.1,30.1v0h0L67,30V6H46.3l-5.2-6L36,6H14.5v24.9L0,47.6h14.5V56H67v-8.3H82.3z M67,46.6V35.8h3.7
	l9.3,10.8H67z M65.8,30.1H48.4v-3.7h14.2L65.8,30.1z M34.9,26.4h2.3v3.7h-2.3V26.4z M41.7,33.7l0-2.6h2.4v3.2
	C43.3,33.9,42.5,33.8,41.7,33.7z M41.7,30.1l0-3.7h2.4v3.7H41.7z M41.7,25.4l0-4.1h2.4v4.1H41.7z M40.7,25.4h-2.5v-4.1h2.5
	L40.7,25.4z M40.7,26.4l0,3.7h-2.5v-3.7H40.7z M45.1,30.1v-3.7h2.3v3.7H45.1z M45.1,25.4v-4.1h2.3v4.1H45.1z M47.4,20.3h-2.3v-3.5
	h2.3V20.3z M44.1,20.3h-2.4l0-3.5h2.4V20.3z M41.7,15.7l0-8.8h2.4v8.8H41.7z M40.7,15.7h-2.5V7h2.5L40.7,15.7z M40.7,16.7l0,3.5
	h-2.5v-3.5H40.7z M37.2,20.3h-2.3v-3.5h2.3V20.3z M34.9,21.3h2.3v4.1h-2.3V21.3z M40.7,31.1l0,2.7c-0.9,0.1-1.7,0.3-2.5,0.7v-3.3
	H40.7z M40.7,34.8l0,11.7h-5.3v-6.3C35.4,37.4,37.7,35,40.7,34.8z M47.3,46.4h-5.6l0-11.7c1.5,0.1,2.8,0.6,3.9,1.6
	c1.1,1,1.7,2.4,1.7,3.8V46.4z M45.3,34.8c-0.1,0-0.1-0.1-0.2-0.1v-3.7H66v3.8H45.3z M67,31.5l2.9,3.3H67V31.5z M48.4,25.4v-9.6h-3.3
	V7h0.7l15.9,18.4H48.4z M44.1,6h-2.4l0-3.8L44.1,5V6z M40.7,6h-2.5V4.9l2.5-2.8L40.7,6z M37.2,7v8.8h-3.3v9.6H20.5L36.4,7H37.2z
	 M19.7,26.4h14.2v3.7H16.5L19.7,26.4z M15.6,31.1h21.6v3.8H15.5v-3.6L15.6,31.1z M36.2,35.8c-1.1,1.1-1.8,2.7-1.8,4.3v6.5H15.5V35.8
	H36.2z M46.5,35.8H66v10.8H48.3v-6.5C48.3,38.5,47.7,37,46.5,35.8z M66,7v21.9l-2.9-3.4v0h0L47.1,7H66z M15.5,7h19.6L15.5,29.7V7z
	 M14.5,34.8h-2.1l2.1-2.5V34.8z M2.2,46.6l9.3-10.8h3v10.8H2.2z M66,55H15.5v-7.3H66V55z"/>
</svg>
