<?xml version="1.0" encoding="utf-8"?>
<!-- Generator: Adobe Illustrator 23.0.3, SVG Export Plug-In . SVG Version: 6.00 Build 0)  -->
<svg version="1.1" id="Layer_1" xmlns="http://www.w3.org/2000/svg" xmlns:xlink="http://www.w3.org/1999/xlink" x="0px" y="0px"
	 viewBox="0 0 86.3 61.8" style="enable-background:new 0 0 86.3 61.8;" xml:space="preserve">
<style type="text/css">
	.st0{fill:#B28C40;}
</style>
<path class="st0" d="M34.9,29.4H13.9v-1h21.1V29.4z M34.9,24.8H13.9v1h21.1V24.8z M24.4,42.2H13.9v1h10.5V42.2z M24.7,38.8H13.9v1
	h10.9V38.8z M34.9,21.4H13.9v1h21.1V21.4z M34.9,18H13.9v1h21.1V18z M34.9,15.4H13.9v1h21.1V15.4z M68,42H50.7v1H68V42z M68,39.5
	H50.7v1H68V39.5z M58.3,37h-7.6v1h7.6V37z M72,13H50.2v19.3H72V13z M51.2,14H71v17.3H51.2V14z M86.3,4.8v57H0v-57h12.7
	c6.3-4.3,16.7-8,30.5-0.5C57-3.2,67.4,0.5,73.6,4.8H86.3z M43.7,5.2v52.2c3.5-2.1,18.5-10,35.9-0.7v-45C78.3,10,65.6-6.7,43.7,5.2z
	 M6.8,11.7v45.7c6.4-3.5,12.6-4.6,17.9-4.6c9,0,15.8,3.4,18,4.6V5.2C20.7-6.7,8.1,10,6.8,11.7z M85.3,5.8H75
	c3.5,2.7,5.4,5.4,5.4,5.5l0.1,0.1v47L79.8,58c-19.5-11-36.2,0.6-36.3,0.7l-0.3,0.2l-0.3-0.2c-0.2-0.1-16.8-11-36.3,0l-0.7,0.4V11.4
	l0.1-0.1c0-0.1,1.9-2.8,5.4-5.5H1v55h84.3V5.8z"/>
</svg>
