<?xml version="1.0" encoding="utf-8"?>
<!-- Generator: Adobe Illustrator 23.0.3, SVG Export Plug-In . SVG Version: 6.00 Build 0)  -->
<svg version="1.1" id="Layer_1" xmlns="http://www.w3.org/2000/svg" xmlns:xlink="http://www.w3.org/1999/xlink" x="0px" y="0px"
	 viewBox="0 0 59.3 74.7" style="enable-background:new 0 0 59.3 74.7;" xml:space="preserve">
<style type="text/css">
	.st0{fill:#B28C40;}
</style>
<g>
	<polygon class="st0" points="59.3,7.6 54.7,7.6 58,4.4 57.2,3.6 54,6.9 54,2.3 53,2.3 53,6.9 49.8,3.6 49,4.4 52.3,7.6 47.7,7.6 
		47.7,8.6 52.3,8.6 49,11.8 49.8,12.6 53,9.3 53,13.9 54,13.9 54,9.3 57.2,12.6 58,11.8 54.7,8.6 59.3,8.6 	"/>
	<path class="st0" d="M54,31.9c-0.5,0-0.9,0.4-0.9,0.9s0.4,0.9,0.9,0.9s0.9-0.4,0.9-0.9S54.5,31.9,54,31.9z"/>
	<polygon class="st0" points="32.5,4.5 33.3,5.3 34.4,4.1 34.4,5.8 35.4,5.8 35.4,4 36.6,5.3 37.4,4.5 36.1,3.3 37.8,3.3 37.8,2.3 
		36.2,2.3 37.4,1.2 36.6,0.4 35.4,1.7 35.4,0 34.4,0 34.4,1.6 33.3,0.4 32.5,1.2 33.7,2.3 32,2.3 32,3.3 33.8,3.3 	"/>
	<path class="st0" d="M2.3,45.1c-1.3,0-2.3,1-2.3,2.3s1,2.3,2.3,2.3c1.3,0,2.3-1,2.3-2.3c0-0.7-0.3-1.3-0.8-1.8
		C3.4,45.2,2.8,45,2.3,45.1z M2.3,48.7c-0.7,0-1.3-0.6-1.3-1.3s0.6-1.3,1.3-1.3c0,0,0.1,0,0.1,0c0.3,0,0.6,0.1,0.7,0.3
		c0.3,0.3,0.4,0.6,0.4,1C3.6,48.1,3,48.7,2.3,48.7z"/>
	<path class="st0" d="M10.9,55.3c-0.5,0-0.9,0.4-0.9,0.9s0.4,0.9,0.9,0.9s0.9-0.4,0.9-0.9S11.4,55.3,10.9,55.3z"/>
	<path class="st0" d="M52.3,29.3c0-10.9-8.8-19.8-19.7-20c-0.1,0-0.1,0-0.2,0c0,0,0,0,0,0c0,0,0,0-0.1,0c-6.2,0-11.7,2.8-15.4,7.2
		l-7.1-5.6l-0.3,0.4c-9.6,12.3-7.3,30.1,5,39.7c5.1,3.9,11.1,5.8,17.1,5.9V63h-7.1c-0.3,0-0.5,0.2-0.5,0.5v5h-3.6
		c-0.3,0-0.5,0.2-0.5,0.5v5.2c0,0.3,0.2,0.5,0.5,0.5h23.3c0.3,0,0.5-0.2,0.5-0.5V69c0-0.3-0.2-0.5-0.5-0.5H40v-5
		c0-0.3-0.2-0.5-0.5-0.5h-6.9v-6.1c8-0.2,15.9-3.8,21.3-10.5l0.3-0.4l-5.9-4.7C50.8,37.9,52.3,33.8,52.3,29.3z M39.5,69.5h3.7v4.2
		H20.9v-4.2h3.6c0.3,0,0.5-0.2,0.5-0.5v-5h14v5C39,69.3,39.2,69.5,39.5,69.5z M51.3,28.8h-6c0-3.3-0.6-6.3-1.5-9h4.9
		C50.3,22.5,51.2,25.5,51.3,28.8z M26.6,29.8c0,3.1,0.2,6.2,0.7,9h-5.1c-1-2.7-1.5-5.7-1.6-9H26.6z M32.2,10.3
		C32.3,10.3,32.3,10.3,32.2,10.3c1.5,0,3,3.3,3.9,8.5h-7.7C29.4,13.6,30.9,10.4,32.2,10.3z M36.3,19.8c0.4,2.6,0.6,5.6,0.7,9h-9.4
		c0.1-3.4,0.3-6.4,0.7-9H36.3z M37,29.8c0,3.4-0.3,6.4-0.7,9h-8.1c-0.4-2.6-0.6-5.6-0.7-9H37z M28.4,39.8h7.7
		c-0.9,5.2-2.4,8.5-3.8,8.5c0,0-0.1,0-0.1,0C30.8,48.2,29.3,45,28.4,39.8z M27.4,39.8c0.6,3.5,1.5,6.5,2.7,8.1c-3.2-1-5.9-4-7.6-8.1
		H27.4z M37.2,39.8h5.1c-1.8,4.3-4.6,7.3-7.9,8.2C35.7,46.4,36.6,43.4,37.2,39.8z M37.3,38.8c0.4-2.8,0.6-5.9,0.7-9h6.3
		c-0.1,3.3-0.6,6.3-1.6,9H37.3z M45.3,29.8h6c-0.1,3.3-1,6.3-2.5,9h-5C44.7,36.1,45.2,33,45.3,29.8z M44.3,28.8H38
		c0-3.1-0.2-6.2-0.7-9h5.3C43.7,22.5,44.2,25.5,44.3,28.8z M37.2,18.8c-0.6-3.6-1.5-6.6-2.8-8.2c3.3,0.9,6.1,3.9,7.9,8.2H37.2z
		 M27.5,18.8h-5c1.7-4.2,4.5-7.2,7.7-8.2C29,12.3,28.1,15.2,27.5,18.8z M27.3,19.8c-0.4,2.8-0.7,5.9-0.7,9h-6.1
		c0.1-3.3,0.6-6.3,1.6-9H27.3z M19.5,28.8h-6.2c0.1-3.3,1-6.4,2.6-9v0H21C20.1,22.5,19.6,25.5,19.5,28.8z M19.5,29.8
		c0,3.3,0.6,6.3,1.5,9h-5.1v0c-1.6-2.7-2.5-5.8-2.6-9H19.5z M21.4,39.8c1.3,3.4,3.3,6.1,5.7,7.7c-4.4-1.3-8.1-4-10.6-7.7H21.4z
		 M43.4,39.8h4.8c-2.4,3.7-6.1,6.4-10.4,7.7C40.1,45.9,42,43.2,43.4,39.8z M48.1,18.8h-4.7c-1.3-3.4-3.2-6-5.6-7.7
		C42.1,12.4,45.7,15.2,48.1,18.8z M27.1,11.1c-2.4,1.6-4.3,4.3-5.7,7.7h-4.9C18.9,15.1,22.7,12.3,27.1,11.1z M52.8,46.2
		c-9.3,11.2-26.1,13-37.7,4c-11.8-9.1-14-26-5.1-37.9l6.3,5c-2.5,3.3-4,7.5-4,12c0,11,9,20,20,20c0,0,0,0,0.1,0c0,0,0,0,0,0
		c0.1,0,0.1,0,0.2,0c6.1-0.1,11.5-2.9,15.1-7.2L52.8,46.2z"/>
</g>
</svg>
