<?xml version="1.0" encoding="utf-8"?>
<!-- Generator: Adobe Illustrator 23.0.3, SVG Export Plug-In . SVG Version: 6.00 Build 0)  -->
<svg version="1.1" id="Layer_1" xmlns="http://www.w3.org/2000/svg" xmlns:xlink="http://www.w3.org/1999/xlink" x="0px" y="0px"
	 viewBox="0 0 67.1 58.5" style="enable-background:new 0 0 67.1 58.5;" xml:space="preserve">
<style type="text/css">
	.st0{fill:#B28C40;}
</style>
<path class="st0" d="M52.8,19.8C52.8,8.9,43.9,0,33,0C22.1,0,13.2,8.9,13.2,19.8c0,0.1,0,0.2,0,0.3C5.5,22.8,0,30.1,0,38.7
	c0,10.9,8.9,19.8,19.8,19.8c5.4,0,10.2-2.1,13.8-5.6c3.6,3.5,8.4,5.6,13.8,5.6c10.9,0,19.8-8.9,19.8-19.8
	C67.1,29.7,61,22.1,52.8,19.8z M66.1,39.4H39.5c0-0.2,0-0.4,0-0.6c0-0.1,0-0.2,0-0.3c2.1-0.7,4-1.8,5.7-3.1h20.5
	c0.2,1.1,0.3,2.3,0.3,3.5C66.1,39,66.1,39.2,66.1,39.4z M33.5,51.5c-3-3.3-4.9-7.6-5-12.4c1.4,0.3,2.9,0.5,4.4,0.5
	c1.9,0,3.8-0.3,5.5-0.8c0,0,0,0,0,0C38.6,43.7,36.6,48.1,33.5,51.5z M14.3,20.8c1.7-0.5,3.6-0.8,5.5-0.8c5.1,0,9.7,2,13.1,5.3
	c-3.1,3.3-5,7.6-5.3,12.4C20.2,35.5,14.7,28.8,14.3,20.8z M44.9,34.3H39c-0.8-3.4-2.5-6.5-4.8-9c3.4-3.3,8-5.3,13.1-5.3
	c1.5,0,3,0.2,4.4,0.5C51.5,26.1,48.9,31,44.9,34.3z M39.2,35.3h4.3c-1.3,0.9-2.6,1.6-4.1,2.1C39.4,36.7,39.4,36,39.2,35.3z M33.9,1
	c3.1,0.1,6,1,8.6,2.5c-4.2,4-7.2,8.8-8.6,14V1z M32.9,17.3c-1.5-5.2-4.5-10-8.8-14C26.7,1.8,29.7,1,32.9,1V17.3z M33.5,26
	c2.9,3.1,4.7,7.2,5,11.7c-1.7,0.5-3.6,0.8-5.5,0.8c-1.5,0-3-0.2-4.4-0.5C28.8,33.4,30.6,29.2,33.5,26z M39.5,40.4H66
	c-0.1,1.4-0.4,2.8-0.8,4.1H38.7C39.1,43.2,39.4,41.8,39.5,40.4z M65.5,34.3H46.4c3.7-3.4,6.1-8.2,6.3-13.5
	C59,22.7,64,27.8,65.5,34.3z M51.8,19.5c-1.4-0.3-2.9-0.5-4.4-0.5c-5.2,0-9.9,2-13.4,5.3c0.1-7.5,3.4-14.6,9.4-20.1
	C48.3,7.4,51.7,13.1,51.8,19.5z M14.2,19.8c0-6.7,3.6-12.7,8.9-16c6.1,5.5,9.5,12.7,9.7,20.2c-3.5-3.1-8.1-5-13.1-5
	C17.8,19,16,19.3,14.2,19.8C14.2,19.8,14.2,19.8,14.2,19.8z M1,38.7c0-8.1,5.1-14.9,12.3-17.6c0.6,8.4,6.4,15.4,14.2,17.6
	c0,5.2,2,9.9,5.3,13.4c-3.4,3.3-8,5.3-13.1,5.3C9.4,57.5,1,49.1,1,38.7z M47.3,57.5c-5.1,0-9.7-2-13.1-5.3c1.8-1.9,3.2-4.2,4.1-6.7
	h26.5C62.1,52.5,55.3,57.5,47.3,57.5z"/>
</svg>
