<?xml version="1.0" encoding="utf-8"?>
<!-- Generator: Adobe Illustrator 23.0.3, SVG Export Plug-In . SVG Version: 6.00 Build 0)  -->
<svg version="1.1" id="Layer_1" xmlns="http://www.w3.org/2000/svg" xmlns:xlink="http://www.w3.org/1999/xlink" x="0px" y="0px"
	 viewBox="0 0 82.9 64.9" style="enable-background:new 0 0 82.9 64.9;" xml:space="preserve">
<style type="text/css">
	.st0{fill:#B28C40;}
</style>
<g>
	<path class="st0" d="M41,16.5c-1.4,0-2.5,0.4-3.2,1.3c-0.7,0.9-1,1.9-1,3c0,1.2,0.3,2.2,1,3c0.7,0.9,1.8,1.3,3.2,1.3
		c1.4,0,2.5-0.4,3.2-1.3c0.7-0.8,1-1.9,1-3c0-1.2-0.3-2.2-1-3C43.5,16.9,42.4,16.5,41,16.5z M43.4,23.2c-0.5,0.6-1.3,0.9-2.4,0.9
		c-1.1,0-1.9-0.3-2.4-0.9c-0.5-0.7-0.8-1.5-0.8-2.4c0-0.9,0.3-1.7,0.8-2.4c0.5-0.6,1.3-1,2.4-1s1.9,0.3,2.4,1
		c0.5,0.7,0.8,1.5,0.8,2.4C44.2,21.8,43.9,22.6,43.4,23.2z"/>
	<path class="st0" d="M41,18.1c-0.7,0-1.3,0.3-1.7,0.8c-0.4,0.5-0.5,1.1-0.5,2c0,0.8,0.2,1.5,0.5,2v0c0.4,0.5,1,0.8,1.7,0.8
		s1.3-0.3,1.7-0.8c0.4-0.5,0.5-1.1,0.5-2c0-0.8-0.2-1.5-0.5-2C42.3,18.4,41.7,18.1,41,18.1z M41.9,22.2c-0.2,0.3-0.5,0.4-0.9,0.4
		c-0.4,0-0.7-0.1-0.9-0.4c-0.2-0.3-0.3-0.8-0.3-1.4c0-0.6,0.1-1.1,0.3-1.4c0.2-0.3,0.5-0.4,0.9-0.4c0.4,0,0.7,0.1,0.9,0.4
		c0.2,0.3,0.3,0.8,0.3,1.4S42.1,21.9,41.9,22.2z"/>
	<path class="st0" d="M32.7,24.9h2.9V14.2h-2.9V24.9z M33.7,15.2h0.9v8.8h-0.9V15.2z"/>
	<path class="st0" d="M28.1,24.9h2.9V14.2h-2.9V24.9z M29.1,15.2h0.9v8.8h-0.9V15.2z"/>
	<path class="st0" d="M24.6,18.6c-0.4-0.3-0.9-0.5-1.4-0.5c-0.6,0-1.1,0.2-1.5,0.6C21.3,19,21.1,19.5,21,20l-0.1,0.6h4.4l0-0.5
		C25.2,19.4,25,18.9,24.6,18.6z M22.2,19.6c0.1-0.1,0.1-0.2,0.2-0.3c0.3-0.3,1.1-0.4,1.6,0c0.1,0.1,0.1,0.2,0.2,0.3H22.2z"/>
	<path class="st0" d="M26.5,18.2c-0.4-0.6-0.9-1-1.5-1.2c-0.6-0.3-1.2-0.4-1.9-0.4c-1.2,0-2.2,0.4-2.9,1.1c-0.8,0.8-1.1,1.8-1.1,3.2
		c0,1.5,0.4,2.6,1.3,3.3c0.8,0.7,1.8,1,2.9,1c1.3,0,2.3-0.4,3.1-1.2c0.5-0.5,0.8-1.1,0.8-1.6l0.1-0.5l0-0.5c0-0.7,0-1.2-0.1-1.5
		C27,19.2,26.8,18.6,26.5,18.2z M20.9,20.9l0,0.5c0,0.9,0.4,1.5,1,1.9c0.8,0.5,2,0.5,2.7-0.1c0.1-0.1,0.2-0.2,0.4-0.4h0.9
		c-0.1,0.2-0.2,0.3-0.4,0.5c-0.6,0.6-1.3,0.9-2.3,0.9c-0.9,0-1.6-0.3-2.2-0.8c-0.6-0.5-0.9-1.3-0.9-2.5c0-1.1,0.3-2,0.8-2.5
		c0.6-0.6,1.3-0.9,2.2-0.9c0.6,0,1.1,0.1,1.5,0.3c0.4,0.2,0.8,0.5,1,0.9c0.3,0.4,0.4,0.8,0.5,1.3c0,0.2,0.1,0.5,0.1,0.9H20.9z
		 M24.4,21.9l-0.1,0.2c-0.1,0.2-0.2,0.3-0.3,0.3c-0.4,0.3-1.1,0.3-1.5,0c-0.2-0.1-0.4-0.3-0.4-0.6H24.4z"/>
	<path class="st0" d="M17.5,17.7c-0.3-0.4-0.7-0.7-1.1-0.9c-0.8-0.3-1.9-0.4-2.7,0c-0.1,0-0.2,0.1-0.2,0.1v-2.7h-2.9v10.7h2.9v-4.4
		c0-0.5,0.1-0.9,0.3-1.1c0.1-0.1,0.3-0.3,0.7-0.3c0.4,0,0.5,0.2,0.5,0.2c0.1,0.2,0.1,0.4,0.1,0.7v4.9H18v-4.7c0-0.7,0-1.2-0.1-1.5
		C17.9,18.4,17.7,18,17.5,17.7z M12.4,20.5v3.4h-0.9v-8.7h0.9v4.6l0.1-0.1C12.4,20,12.4,20.2,12.4,20.5z M17,23.9h-0.9V20
		c0-0.5-0.1-0.9-0.3-1.2c-0.2-0.4-0.6-0.8-1.4-0.8c-0.5,0-0.8,0.1-1.1,0.3c0.2-0.3,0.4-0.5,0.7-0.6c0.6-0.3,1.4-0.2,1.9,0
		c0.3,0.1,0.5,0.3,0.7,0.5c0.1,0.2,0.2,0.4,0.3,0.6c0,0.2,0.1,0.6,0.1,1.3V23.9z"/>
	<path class="st0" d="M67.5,33.3L66.1,32l-0.3,0.6c-0.1,0.2-0.2,0.4-0.3,0.7c0-0.1,0-0.2,0-0.3c0-1.6,0.3-3.8,0.7-5.4
		c0.2-0.1,0.4-0.3,0.4-0.5l0.1-0.5l-2.3-0.4l-0.1,0.5c-0.5,2.5-0.7,4.7-0.7,6.4c0,1.1,0.1,3.7,0.6,5l0.1,0.3l1.9-0.2l-0.2-0.6
		C66,37.3,66,37.1,66,37c0-0.4,0.6-1.8,1.3-3.4L67.5,33.3z M65.2,27.8c0-0.2,0.1-0.4,0.1-0.5l0,0C65.2,27.4,65.2,27.6,65.2,27.8z"/>
	<path class="st0" d="M73.2,34.2c0-0.8-0.1-2-0.1-3.2c0.9-0.1,1.7-0.3,2.4-0.5l0.4-0.1l-0.3-2L75,28.6c-0.6,0.2-1.3,0.4-2,0.5l0-0.1
		c0-0.6,0-1.2,0-1.8c0.2-0.2,0.3-0.4,0.3-0.6l0.1-0.5L70.9,26l0,0.5c0,0.9,0.1,1.7,0.1,2.7c-1,0-1.9,0-2.9,0l-0.5,0l0,1.9h2.6
		c0.3,0,0.6,0,0.9,0l0.1,1.3c0,0.4,0,0.8,0.1,1.2c-1.7-0.2-3.9,0.4-3.9,2.4c0,1.5,1.3,2.5,3.1,2.5c2,0,2.6-1.2,2.7-2.1
		c0.5,0.3,1,0.7,1.4,1.1l0.4,0.4l1.1-1.8l-0.3-0.3C75.1,35.2,74.2,34.6,73.2,34.2z M70.5,36.7c-0.5,0-1.3-0.1-1.3-0.6
		c0-0.5,0.9-0.7,1.3-0.7c0.2,0,0.5,0,0.9,0.1l0,0.1C71.4,36.6,71.1,36.7,70.5,36.7z M72,27.1L72,27.1c0,0.1,0,0.3,0,0.4
		C72,27.3,72,27.2,72,27.1z"/>
	<path class="st0" d="M74.5,13H56V8.6C56,3.8,52.2,0,47.4,0H8.6C3.8,0,0,3.8,0,8.6v22.9c0,4.7,3.8,8.6,8.6,8.6h0.1v12.3l13.1-12.3
		h5.1v3.1c0,4.6,3.8,8.4,8.4,8.4h25.8l13.1,13.3V51.5h0.2c4.6,0,8.4-3.8,8.4-8.4V21.4C82.9,16.8,79.1,13,74.5,13z M55.9,33.1
		c0.3-0.1,0.6-0.1,0.8-0.1c1.2,0,1.9,0.6,1.9,1.6c0,0.8-0.5,1.9-4.4,2.2C55,35.7,55.6,34.5,55.9,33.1z M59.1,33.1
		c0.1,0.1,0.1,0.2,0.2,0.3C59.3,33.3,59.2,33.2,59.1,33.1z M59.4,33.5c0,0.1,0,0.2,0.1,0.2C59.4,33.6,59.4,33.6,59.4,33.5z
		 M59.6,34.8C59.6,34.8,59.6,34.8,59.6,34.8C59.6,34.8,59.6,34.8,59.6,34.8z M59.5,35.3C59.5,35.3,59.5,35.3,59.5,35.3
		C59.5,35.3,59.5,35.3,59.5,35.3z M21.4,39.1l-11.7,11v-11H8.6c-4.2,0-7.6-3.4-7.6-7.6V8.6C1,4.4,4.4,1,8.6,1h38.9
		C51.6,1,55,4.4,55,8.6v22.9c0,4.2-3.4,7.6-7.6,7.6H21.4z M81.9,43.1c0,4.1-3.3,7.4-7.4,7.4h-1.2v11.9L61.5,50.5H35.3
		c-4.1,0-7.4-3.3-7.4-7.4v-3.1h19.6c1.9,0,3.6-0.6,5-1.6l0.1,0.3l0.4,0c3.5-0.1,7.6-0.6,7.6-4.2c0-2.1-1.4-3.4-3.8-3.4
		c-0.2,0-0.5,0-0.8,0.1v-1.4c1.3-0.2,2.6-0.4,3.5-0.6L60,29l-0.4-2l-0.5,0.2c-0.8,0.2-1.9,0.4-3.1,0.6V14h18.5
		c4.1,0,7.4,3.3,7.4,7.4V43.1z"/>
</g>
</svg>
