<?xml version="1.0" encoding="utf-8"?>
<!-- Generator: Adobe Illustrator 23.0.3, SVG Export Plug-In . SVG Version: 6.00 Build 0)  -->
<svg version="1.1" id="Layer_1" xmlns="http://www.w3.org/2000/svg" xmlns:xlink="http://www.w3.org/1999/xlink" x="0px" y="0px"
	 viewBox="0 0 52.5 70.3" style="enable-background:new 0 0 52.5 70.3;" xml:space="preserve">
<style type="text/css">
	.st0{fill:#B28C40;}
</style>
<g>
	<path class="st0" d="M42.2,26.9H9.4c-1.2,0-2.2,1-2.2,2.2v31.8c0,1.2,1,2.2,2.2,2.2h32.8c1.2,0,2.2-1,2.2-2.2V29.1
		C44.4,27.9,43.4,26.9,42.2,26.9z M43.4,29.1v7.5H35v-8.7h7.2C42.9,27.9,43.4,28.4,43.4,29.1z M34,37.6v6.9h-7.7v-6.9H34z
		 M26.3,36.6v-8.7H34v8.7H26.3z M25.3,44.5H17v-6.9h8.3V44.5z M16,44.5H8.2v-6.9H16V44.5z M16,45.5v7.1H8.2v-7.1H16z M17,45.5h8.3
		v7.1H17V45.5z M25.3,53.6v8.5H17v-8.5H25.3z M26.3,53.6H34v8.5h-7.7V53.6z M26.3,52.6v-7.1H34v7.1H26.3z M35,45.5h8.4v7.1H35V45.5z
		 M35,44.5v-6.9h8.4v6.9H35z M9.4,27.9h15.9v8.7H8.2v-7.5C8.2,28.4,8.7,27.9,9.4,27.9z M8.2,60.9v-7.3H16v8.5H9.4
		C8.7,62.1,8.2,61.6,8.2,60.9z M42.2,62.1H35v-8.5h8.4v7.3C43.4,61.6,42.9,62.1,42.2,62.1z"/>
	<path class="st0" d="M42.6,7.5H8.9c-1,0-1.8,0.8-1.8,1.8v5.9c0,1,0.8,1.8,1.8,1.8h33.7c1,0,1.8-0.8,1.8-1.8V9.3
		C44.4,8.3,43.6,7.5,42.6,7.5z M43.4,15.1c0,0.4-0.4,0.8-0.8,0.8H8.9c-0.4,0-0.8-0.4-0.8-0.8V9.3c0-0.4,0.4-0.8,0.8-0.8h33.7
		c0.4,0,0.8,0.4,0.8,0.8V15.1z"/>
	<path class="st0" d="M47.6,0H4.9C2.2,0,0,2.2,0,4.9v60.5c0,2.7,2.2,4.9,4.9,4.9h42.7c2.7,0,4.9-2.2,4.9-4.9V4.9
		C52.5,2.2,50.3,0,47.6,0z M51.5,65.4c0,2.1-1.7,3.9-3.9,3.9H4.9c-2.1,0-3.9-1.7-3.9-3.9V4.9C1,2.7,2.7,1,4.9,1h42.7
		c2.1,0,3.9,1.7,3.9,3.9V65.4z"/>
</g>
</svg>
