<?xml version="1.0" encoding="utf-8"?>
<!-- Generator: Adobe Illustrator 23.0.3, SVG Export Plug-In . SVG Version: 6.00 Build 0)  -->
<svg version="1.1" id="Layer_1" xmlns="http://www.w3.org/2000/svg" xmlns:xlink="http://www.w3.org/1999/xlink" x="0px" y="0px"
	 viewBox="0 0 93.6 64.8" style="enable-background:new 0 0 93.6 64.8;" xml:space="preserve">
<style type="text/css">
	.st0{fill:#B28C40;}
</style>
<path class="st0" d="M51.1,11.3c-0.2-0.3-0.5-0.6-0.9-0.7c-0.4-0.1-0.8,0-1.1,0.2c-0.7,0.4-0.9,1.3-0.5,2c0.3,0.5,0.8,0.7,1.3,0.7
	c0.3,0,0.5-0.1,0.7-0.2C51.3,12.9,51.5,12,51.1,11.3z M50.1,12.4c-0.2,0.1-0.5,0.1-0.6-0.2c-0.1-0.2-0.1-0.5,0.2-0.6
	c0.1,0,0.2-0.1,0.2-0.1c0,0,0.1,0,0.1,0c0.1,0,0.2,0.1,0.3,0.2C50.4,12,50.3,12.3,50.1,12.4z M48.4,4.1L48.1,4l0.2-1l0.3,0.1
	l-0.2-0.3l0.9-0.5l0.2,0.3l0.1-0.3l1,0.2l-0.1,0.3l0.3-0.2l0.5,0.9L51,3.7l0.3,0.1l-0.2,1l-0.3-0.1L50.9,5l-0.9,0.5l-0.2-0.3
	l-0.1,0.3l-1-0.2L48.9,5l-0.3,0.2l-0.5-0.9L48.4,4.1z M82.5,45.6L93.6,46L79.5,34.8c1.7-2.2,3.3-4.7,4.7-7.3l0.2-0.4L48.9,8
	l-0.2,0.4c-1.3,2.4-2.4,4.9-3.3,7.3c-0.6-1.9-1.4-3.7-2.2-5.6l0.7,0.3l0.4-0.9l-1.7-0.8l1.7-0.6l-0.3-0.9l-1.7,0.6l0.8-1.7l-0.9-0.4
	l-0.8,1.7l-0.6-1.7l-0.9,0.3l0.6,1.7L38.9,7l-0.4,0.9l1.7,0.8l-1.7,0.6l0.2,0.6l-7,3.5l4.2-8.6L25.9,0l-0.4,0.9l9,4.3l-1,2.1L24.6,3
	l-5.7,11.7c-0.3-0.7-0.8-1.4-1.6-1.7c-0.8-0.4-1.6-0.4-2.4-0.1c-0.8,0.3-1.4,0.9-1.8,1.6c-0.4,0.8-0.4,1.6-0.1,2.4
	c0.3,0.8,0.9,1.4,1.6,1.8c0.4,0.2,0.9,0.3,1.4,0.3c1.2,0,2.3-0.7,2.9-1.8l0,0L25,4.3l8,3.9l-2.9,5.9l-0.2,0.1
	c-0.3-0.7-0.8-1.2-1.5-1.5c-1.6-0.8-3.5-0.1-4.2,1.5c-0.4,0.9-0.4,2,0.1,2.9l-18,9l0.2,0.4c2,4,4.4,7.6,7.1,10.7L0,48.3l11.2-0.6
	L8.3,58.6l14.8-12.9c1.8,1.1,3.7,2,5.5,2.6c1.8,0.6,3.6,0.9,5.3,0.9c2.1,0,4.1-0.5,5.9-1.4c2.3-1.2,4.1-3,5.4-5.3
	c1.3,2.4,3.1,4.2,5.4,5.4c1.9,1,3.9,1.4,6.1,1.4c4.3,0,9-1.9,13.6-5.3l15.3,12.2L82.5,45.6z M16.6,17.9c-0.6,0.2-1.1,0.2-1.7-0.1
	s-0.9-0.7-1.1-1.2s-0.2-1.1,0.1-1.7c0.4-0.8,1.2-1.2,2-1.2c0.3,0,0.6,0.1,0.9,0.2c1.1,0.5,1.5,1.8,1,2.9
	C17.6,17.3,17.2,17.7,16.6,17.9z M90.6,44.9L82,44.5l-6.1-5.5c1-1.1,2-2.3,3-3.5L90.6,44.9z M25.1,14.6c0.5-1.1,1.8-1.5,2.9-1
	c0.5,0.2,0.8,0.6,1,1.1l-3.9,1.9C24.8,16,24.8,15.3,25.1,14.6z M3,47.1L14.2,38c1.1,1.2,2.2,2.4,3.4,3.4l-5.9,5.2L3,47.1z
	 M10.1,55.7l2.2-8.3l6-5.2c1.3,1.1,2.6,2.1,3.9,3L10.1,55.7z M39.3,46.9c-3,1.5-6.6,1.7-10.4,0.4c-7.8-2.5-16-10.5-21.3-20.8
	L41.7,9.5l0.1,0C49.5,25.5,48.4,42.2,39.3,46.9z M51,47.1c-2.2-1.2-4-3-5.3-5.5c3-6,3.1-14.8,0.2-24.2c0.9-2.7,2-5.4,3.4-8
	l33.7,18.1C74.4,43,60.1,51.8,51,47.1z M75.2,39.8l6.2,5.5l2.4,8.3L71,43.5C72.4,42.4,73.8,41.2,75.2,39.8z M62.4,25.4
	c-1.7-1-3.8-1.3-5.9-0.8c-2.4,0.6-4.5,2.3-5.9,4.5l-0.3,0.4l14.2,8.3l0.3-0.4C67.3,33.1,66.2,27.7,62.4,25.4z M64.2,36.5l-12.5-7.2
	c1.2-1.8,3-3.1,5-3.6c1.8-0.5,3.6-0.2,5.1,0.7C65.1,28.2,66.1,32.7,64.2,36.5z M37.1,24.7l-14.7,7.3l0.2,0.4
	c1.2,2.3,3.2,4.1,5.6,4.9c0.8,0.3,1.7,0.4,2.5,0.4c1.2,0,2.4-0.3,3.4-0.8c4-2,5.4-7.3,3.2-11.8L37.1,24.7z M33.6,36.1
	c-1.6,0.8-3.4,0.9-5.2,0.3c-1.9-0.6-3.6-2.1-4.7-3.9l12.9-6.4C38.3,30,37,34.4,33.6,36.1z M70.2,61.2l-1.7,0.6l1.7,0.8l-0.4,0.9
	l-1.7-0.8l0.6,1.7l-0.9,0.3l-0.6-1.7l-0.8,1.7l-0.9-0.4l0.8-1.7l-1.7,0.6l-0.3-0.9l1.7-0.6l-1.7-0.8l0.4-0.9l1.7,0.8l-0.6-1.7
	l0.9-0.3l0.6,1.7l0.8-1.7l0.9,0.4l-0.8,1.7l1.7-0.6L70.2,61.2z M68.6,53c0.2,0,0.3,0,0.5-0.1c0.4-0.1,0.7-0.4,0.8-0.8s0.2-0.7,0-1.1
	c-0.1-0.4-0.4-0.7-0.8-0.8c-0.7-0.3-1.6,0-1.9,0.7c-0.3,0.7,0,1.6,0.7,1.9C68.1,52.9,68.4,53,68.6,53z M68.1,51.3
	c0.1-0.2,0.2-0.3,0.4-0.3c0.1,0,0.1,0,0.2,0c0.1,0,0.2,0.1,0.2,0.3s0,0.2,0,0.3c-0.1,0.1-0.1,0.2-0.3,0.2c-0.1,0-0.2,0-0.3,0
	C68.1,51.8,68,51.5,68.1,51.3z M61.1,55.1l-0.3,0.1l0.3,0.1l-0.4,0.9l-0.3-0.1l0.1,0.3l-0.9,0.3l-0.1-0.3l-0.1,0.3l-0.9-0.4l0.1-0.3
	l-0.3,0.1l-0.3-0.9l0.3-0.1L57.9,55l0.4-0.9l0.3,0.1l-0.1-0.3l0.9-0.3l0.1,0.3l0.1-0.3l0.9,0.4l-0.1,0.3l0.3-0.1L61.1,55.1z"/>
</svg>
