<?xml version="1.0" encoding="utf-8"?>
<!-- Generator: Adobe Illustrator 23.0.3, SVG Export Plug-In . SVG Version: 6.00 Build 0)  -->
<svg version="1.1" id="Layer_1" xmlns="http://www.w3.org/2000/svg" xmlns:xlink="http://www.w3.org/1999/xlink" x="0px" y="0px"
	 viewBox="0 0 82.3 85.9" style="enable-background:new 0 0 82.3 85.9;" xml:space="preserve">
<style type="text/css">
	.st0{fill:#B28C40;}
</style>
<g>
	<path class="st0" d="M57.1,40.2l11.3-6.2L68.1,33l-13.2,0.2l6.7-3.9L61,28.4L54.9,32l6.4-10.7l-0.7-0.7l-10.7,6.4L63.5,7.2
		l-0.8-0.6L48.7,27l0.2-13.1L48,13.6l-6.2,11.2V0h-1v24.9l-6.2-11.2l-0.9,0.3l0.2,13.2L19.6,6.7l-0.8,0.6L32.5,27l-10.6-6.4
		l-0.7,0.7l6.5,10.8l-5.9-3.8l-0.5,0.8l6.4,4.1L14.4,33l-0.3,0.9l11.2,6.2H0v1h25.4l-11.2,6.2l0.3,0.9l13.1-0.2L5.7,61.9l0.5,0.8
		l21.4-13.5l-6.5,10.8l0.7,0.7l11-6.6l-3.5,6.8l0.9,0.5l3.5-6.8l-0.2,12.9l0.9,0.3l6.2-11.2v24.4h1V56.5L48,67.7l0.9-0.3l-0.2-13.1
		l3.7,5.9l0.8-0.5l-3.5-5.5l10.8,6.5l0.7-0.7l-6.6-11l21.5,14.5l0.6-0.8L55.1,48.2l12.9,0.2l0.3-0.9l-11.3-6.2h25.3v-1H57.1z
		 M33.8,53.6L33.8,53.6L33.8,53.6L33.8,53.6z M54.2,48.3l-0.1-0.1l0.2,0L54.2,48.3z M52.4,47.1l7,11.7l-11.8-7l0.2,13.7l-6.7-12
		l-6.7,12l0.2-13.7l-11.8,7l7-11.7l-13.7,0.2l12-6.7l-12-6.7l13.7,0.2l-7-11.7l11.8,7l-0.2-13.7l6.7,12l6.7-12l-0.2,13.7l11.8-7
		l-7,11.7L66.1,34l-12,6.7l12,6.7L52.4,47.1z"/>
	<path class="st0" d="M16.7,5.6c0.8,0,1.5-0.7,1.5-1.5c0-0.8-0.7-1.5-1.5-1.5c-0.8,0-1.5,0.7-1.5,1.5C15.2,4.9,15.9,5.6,16.7,5.6z"
		/>
	<circle class="st0" cx="78.3" cy="64.8" r="1.2"/>
	<path class="st0" d="M40.8,84c-0.5,0-1,0.4-1,1c0,0.5,0.4,1,1,1s1-0.4,1-1C41.7,84.4,41.3,84,40.8,84z"/>
	<circle class="st0" cx="63.1" cy="27.6" r="1"/>
	<path class="st0" d="M65.9,27.3c0.5,0,1-0.4,1-1s-0.4-1-1-1s-1,0.4-1,1S65.3,27.3,65.9,27.3z"/>
	<circle class="st0" cx="27.4" cy="65.1" r="1"/>
	<path class="st0" d="M28.7,62c-0.5,0-1,0.4-1,1s0.4,1,1,1s1-0.4,1-1S29.2,62,28.7,62z"/>
	<path class="st0" d="M16.8,26.8c0,0.5,0.4,1,1,1s1-0.4,1-1s-0.4-1-1-1S16.8,26.2,16.8,26.8z"/>
	<path class="st0" d="M19.6,29c0.5,0,1-0.4,1-1s-0.4-1-1-1s-1,0.4-1,1S19.1,29,19.6,29z"/>
</g>
</svg>
