<?xml version="1.0" encoding="utf-8"?>
<!-- Generator: Adobe Illustrator 23.0.3, SVG Export Plug-In . SVG Version: 6.00 Build 0)  -->
<svg version="1.1" id="Layer_1" xmlns="http://www.w3.org/2000/svg" xmlns:xlink="http://www.w3.org/1999/xlink" x="0px" y="0px"
	 viewBox="0 0 64 65.7" style="enable-background:new 0 0 64 65.7;" xml:space="preserve">
<style type="text/css">
	.st0{fill:#B28C40;}
</style>
<g>
	<path class="st0" d="M64,32c0-1.8-1.3-3.5-3.5-5c-0.1-1.1-1-2-2.1-2c-0.4,0-0.8,0.1-1.1,0.3c-1.5-0.6-3.2-1.2-5-1.7
		c0.4-0.7,0.7-1.3,1.1-2c2.9-5.8,3.4-10.1,1.3-12.3c-2.4-2.4-7.8-1.4-14.2,2.3C38.5,4.5,35.5,0,32,0c-3.4,0-6.4,4.5-8.4,11.7
		c-5.3-3-9.9-4.3-12.7-3.3C10.6,8.2,10.2,8,9.7,8c-1.2,0-2.2,1-2.2,2.2c0,0.6,0.3,1.2,0.7,1.5c-0.5,2.4,0.4,5.8,2.5,9.9
		c0.3,0.6,0.7,1.3,1.1,2C4.5,25.6,0,28.6,0,32c0,3.1,3.7,5.9,9.7,7.8c0,0.1,0,0.1,0,0.2c0,0.8,0.5,1.6,1.2,1.9
		c-0.1,0.1-0.2,0.3-0.2,0.4c-2.9,5.8-3.4,10.1-1.3,12.3c0.9,0.9,2.1,1.3,3.7,1.3c2.7,0,6.4-1.3,10.5-3.7c1.5,5.7,3.7,9.7,6.3,11.1
		c0,0,0,0.1,0,0.1c0,1.2,1,2.2,2.2,2.2c1.2,0,2.2-1,2.2-2.2c0,0,0-0.1,0-0.1c2.5-1.5,4.7-5.5,6.3-11.1C44.6,54.7,48.2,56,51,56
		c1.6,0,2.8-0.4,3.7-1.3c2.1-2.1,1.7-6.5-1.3-12.3c-0.3-0.6-0.7-1.3-1.1-2C59.5,38.5,64,35.5,64,32z M51,9.1c1.3,0,2.3,0.3,3,1
		c1.8,1.8,1.2,5.8-1.5,11.1c-0.4,0.7-0.8,1.4-1.2,2.2c-2.7-0.7-5.7-1.2-9-1.6c-0.4-3.3-0.9-6.3-1.6-9C44.8,10.4,48.4,9.1,51,9.1z
		 M14,39.9c0-0.3-0.1-0.6-0.3-0.9c1.3-2,2.8-4.1,4.4-6.2c1,1.2,2,2.4,3.1,3.6c0.1,1.6,0.2,3.2,0.3,4.8C18.9,40.9,16.3,40.5,14,39.9z
		 M41.8,32c0,1.4,0,2.7-0.1,4c-0.9,1-1.8,2-2.8,2.9c-1,1-1.9,1.9-2.9,2.8c-1.3,0.1-2.7,0.1-4,0.1c-1.4,0-2.7,0-4-0.1
		c-1-0.9-1.9-1.8-2.9-2.8c-1-1-1.9-1.9-2.8-2.9c-0.1-1.3-0.1-2.7-0.1-4c0-1.4,0-2.7,0.1-4c0.9-1,1.8-2,2.8-2.9c1-1,1.9-1.9,2.9-2.8
		c1.3-0.1,2.7-0.1,4-0.1c1.4,0,2.7,0,4,0.1c1,0.9,1.9,1.8,2.9,2.8c1,1,1.9,1.9,2.8,2.9C41.8,29.3,41.8,30.7,41.8,32z M39.7,24.4
		c-0.7-0.7-1.4-1.3-2.1-2c1.3,0.1,2.5,0.2,3.7,0.3c0.1,1.2,0.2,2.5,0.3,3.7C41,25.8,40.3,25.1,39.7,24.4z M36.5,21.3
		c-1.2-1.1-2.4-2.2-3.6-3.1c2.4-1.9,4.7-3.5,6.9-4.9c0.6,2.5,1.1,5.3,1.5,8.4C39.7,21.5,38.1,21.4,36.5,21.3z M34.9,21.3
		c-0.9,0-1.9,0-2.9,0c-1,0-1.9,0-2.9,0c1-0.8,1.9-1.7,2.9-2.4C33,19.6,33.9,20.4,34.9,21.3z M27.6,21.3c-1.6,0.1-3.2,0.2-4.8,0.3
		c0.3-3,0.8-5.8,1.5-8.4c2.2,1.3,4.6,3,6.9,4.9C30,19.2,28.8,20.2,27.6,21.3z M26.4,22.4c-0.7,0.6-1.4,1.3-2.1,2
		c-0.7,0.7-1.3,1.4-2,2.1c0.1-1.3,0.2-2.5,0.3-3.7C23.9,22.6,25.2,22.5,26.4,22.4z M21.3,27.6c-1.1,1.2-2.2,2.4-3.1,3.6
		c-1.9-2.4-3.5-4.7-4.9-6.9c2.5-0.6,5.3-1.1,8.4-1.5C21.5,24.4,21.4,26,21.3,27.6z M21.3,29.2c0,0.9,0,1.9,0,2.9c0,1,0,1.9,0,2.9
		c-0.8-1-1.7-1.9-2.4-2.9C19.6,31.1,20.4,30.1,21.3,29.2z M22.4,37.6c0.7,0.7,1.3,1.4,2,2.1c0.7,0.7,1.4,1.3,2.1,2
		c-1.3-0.1-2.5-0.2-3.7-0.3C22.6,40.1,22.5,38.9,22.4,37.6z M27.6,42.7c1.2,1.1,2.4,2.2,3.6,3.1c-2.4,1.9-4.7,3.5-6.9,4.9
		c-0.6-2.5-1.1-5.3-1.5-8.3C24.4,42.5,26,42.6,27.6,42.7z M29.2,42.8c0.9,0,1.9,0,2.9,0c1,0,1.9,0,2.9,0c-1,0.8-1.9,1.7-2.9,2.4
		C31.1,44.4,30.1,43.6,29.2,42.8z M36.4,42.7c1.6-0.1,3.2-0.2,4.8-0.3c-0.4,3-0.8,5.8-1.5,8.4c-2.2-1.3-4.6-3-6.9-4.9
		C34,44.9,35.2,43.8,36.4,42.7z M37.6,41.6c0.7-0.6,1.4-1.3,2.1-2c0.7-0.7,1.3-1.4,2-2.1c-0.1,1.3-0.2,2.5-0.3,3.7
		C40.1,41.5,38.9,41.6,37.6,41.6z M42.7,36.4c1.1-1.2,2.2-2.4,3.1-3.6c1.9,2.4,3.5,4.7,4.9,6.9c-2.5,0.6-5.3,1.1-8.4,1.5
		C42.5,39.7,42.6,38.1,42.7,36.4z M42.8,34.9c0-0.9,0-1.9,0-2.9c0-1,0-1.9,0-2.9c0.8,1,1.7,1.9,2.4,2.9C44.4,33,43.6,33.9,42.8,34.9
		z M42.7,27.6c-0.1-1.6-0.2-3.2-0.3-4.8c3,0.4,5.8,0.8,8.4,1.5c-1.4,2.3-3,4.6-4.9,6.9C44.9,30,43.8,28.8,42.7,27.6z M32,1
		c3,0,5.7,4.4,7.5,11.3c-2.4,1.4-4.9,3.2-7.5,5.3c-2.6-2.1-5.1-3.8-7.5-5.3C26.4,5.4,29.1,1,32,1z M11.6,21.2
		c-1.9-3.7-2.7-6.8-2.4-8.9c0.2,0,0.4,0.1,0.6,0.1c1.2,0,2.2-1,2.2-2.2c0-0.3-0.1-0.7-0.2-1c2.6-0.7,6.8,0.7,11.7,3.5
		c-0.7,2.7-1.2,5.7-1.6,9c-3.3,0.4-6.3,0.9-9,1.6C12.3,22.6,11.9,21.9,11.6,21.2z M1,32c0-3,4.4-5.7,11.3-7.5c1.5,2.4,3.2,5,5.3,7.5
		c-1.7,2.1-3.2,4.2-4.5,6.2c-0.3-0.2-0.8-0.4-1.2-0.4c-0.8,0-1.4,0.4-1.8,1C4.5,37.1,1,34.7,1,32z M10.1,54
		c-1.8-1.8-1.2-5.8,1.5-11.1c0.1-0.2,0.2-0.4,0.4-0.7c0.8,0,1.6-0.5,1.9-1.2c2.4,0.6,5.1,1,8,1.3c0.4,3.3,0.9,6.3,1.6,9
		C17.2,54.8,12.2,56,10.1,54z M33.9,62.4c-0.4-0.6-1.1-1.1-1.9-1.1c-0.8,0-1.5,0.4-1.9,1.1c-2.2-1.4-4.2-5.3-5.6-10.7
		c2.4-1.4,4.9-3.2,7.5-5.3c2.6,2.1,5.1,3.8,7.5,5.3C38.1,57.2,36.1,61,33.9,62.4z M52.5,42.9c2.7,5.3,3.2,9.3,1.5,11.1
		c-2.1,2.1-7.1,0.9-13.3-2.7c0.7-2.7,1.2-5.7,1.6-9c3.3-0.4,6.3-0.9,9-1.6C51.7,41.4,52.1,42.1,52.5,42.9z M51.8,39.5
		c-1.5-2.4-3.2-4.9-5.3-7.5c2-2.5,3.8-5.1,5.3-7.5c1.8,0.5,3.4,1,4.8,1.6c-0.2,0.3-0.3,0.7-0.3,1.1c0,1.2,1,2.2,2.2,2.2
		c0.9,0,1.6-0.5,1.9-1.2c1.7,1.2,2.7,2.5,2.7,3.9C63,35,58.6,37.7,51.8,39.5z"/>
	<path class="st0" d="M32,27.7c-2.4,0-4.3,1.9-4.3,4.3s1.9,4.3,4.3,4.3s4.3-1.9,4.3-4.3S34.4,27.7,32,27.7z M32,35.3
		c-1.8,0-3.3-1.5-3.3-3.3c0-1.8,1.5-3.3,3.3-3.3c1.8,0,3.3,1.5,3.3,3.3C35.3,33.8,33.8,35.3,32,35.3z"/>
</g>
</svg>
