<?xml version="1.0" encoding="utf-8"?>
<!-- Generator: Adobe Illustrator 23.0.3, SVG Export Plug-In . SVG Version: 6.00 Build 0)  -->
<svg version="1.1" id="Layer_1" xmlns="http://www.w3.org/2000/svg" xmlns:xlink="http://www.w3.org/1999/xlink" x="0px" y="0px"
	 viewBox="0 0 73.6 71.7" style="enable-background:new 0 0 73.6 71.7;" xml:space="preserve">
<style type="text/css">
	.st0{fill:#B28C40;}
</style>
<path class="st0" d="M62.8,0H10.9C5,0,0.1,4.8,0.1,10.8v37.8c0,2.6,0.9,5,2.6,7C1.1,60.5,0.4,65.1,0,68.7c-0.1,1.3,0.6,2.4,1.7,2.8
	c0.3,0.1,0.6,0.2,1,0.2c0.9,0,1.7-0.4,2.2-1.2c2.3-3.2,4.2-7,5.9-11.2c0.1,0,0.1,0,0.2,0h51.9c6,0,10.8-4.8,10.8-10.8V10.8
	C73.6,4.8,68.8,0,62.8,0z M4.1,70c-0.6,0.8-1.4,0.9-2,0.6c-0.6-0.2-1.2-0.8-1.1-1.8c0.7-7.2,3-17.8,9.9-28c0.1-0.1,0.2-0.3,0.3-0.4
	l2.7,1c0,0.2,0,0.4,0,0.5c-0.3,2.3-0.9,6-2,10.3C10.2,59.2,7.5,65.2,4.1,70z M19.7,25.5c0.1,0.2,0.1,0.4,0.2,0.6
	c0.1,0.4,0.3,0.9,0.4,1.3c0.1,0.5,0,1.1-0.2,1.6c-0.4,0.9-1.1,1.4-2.2,1.7c-0.6,0.1-1,0.1-1.3,0l0,0c-2-0.7-2.3-2.1-2.3-2.9
	c0-1,0.5-1.9,1-2.7c1.1-1.6,2.6-2.5,4.1-3.2C19.2,23.1,19.3,24.2,19.7,25.5z M16,31.6l-2,8.8l-2.3-0.8l3.7-8.1L16,31.6z M14,48.1
	l22.7-17.3l24.1,18.3v2.7H13.2C13.5,50.6,13.8,49.3,14,48.1z M65.6,51.8h-3.8v-3.4h3.8V51.8z M65.6,47.1h-3.8v-3.4h3.8V47.1z
	 M65.6,42.5h-3.8v-3.4h3.8V42.5z M60.8,38.1v4.7v0.7v4v0.5L37.5,30.2L65.6,8.8v29.3H60.8z M36.7,29.6L8.5,8.1h56.3L36.7,29.6z
	 M7.8,8.8l28.1,21.4L14.3,46.7c0.3-1.8,0.6-3.4,0.7-4.6c0-0.4,0-0.8-0.1-1.2l2-9.1c0.1,0,0.2,0,0.2,0c0.3,0,0.6,0,0.9-0.1
	c1.4-0.4,2.4-1.1,2.9-2.3c0.3-0.7,0.4-1.5,0.3-2.2c-0.1-0.5-0.2-1-0.4-1.4c-0.1-0.2-0.1-0.4-0.2-0.6c-0.4-1.3-0.4-2.4-0.1-3.4
	c0.1-0.3,0.1-0.6-0.1-0.8c-0.1-0.2-0.4-0.3-0.8-0.1c-1.8,0.7-3.8,1.8-5.1,3.8c-0.6,0.9-1.2,1.9-1.1,3.2c0,1.2,0.5,2.2,1.4,2.9
	l-4.1,8.8c0,0,0,0.1,0,0.1c-0.2,0.2-0.3,0.3-0.5,0.5c-0.8,1.2-1.6,2.5-2.3,3.7V8.8z M72.6,48.6c0,5.4-4.4,9.8-9.8,9.8H11.1
	c0.6-1.8,1.2-3.6,1.8-5.5h53.7v-0.1v-4.7v-0.7v-4v-0.7v-4.7v-31H6.8v38.7c-1.6,2.9-2.8,5.9-3.7,8.7c-1.3-1.7-1.9-3.7-1.9-5.9V10.8
	C1.1,5.4,5.5,1,10.9,1h51.9c5.4,0,9.8,4.4,9.8,9.8V48.6z M9.4,4.1C9.4,4.6,9,5,8.5,5C8,5,7.6,4.6,7.6,4.1c0-0.5,0.4-0.9,0.9-0.9
	C9,3.1,9.4,3.6,9.4,4.1z M13.5,4.1c0,0.5-0.4,0.9-0.9,0.9c-0.5,0-0.9-0.4-0.9-0.9c0-0.5,0.4-0.9,0.9-0.9C13.1,3.1,13.5,3.6,13.5,4.1
	z M17.8,4.1c0,0.5-0.4,0.9-0.9,0.9C16.4,5,16,4.6,16,4.1c0-0.5,0.4-0.9,0.9-0.9C17.4,3.1,17.8,3.6,17.8,4.1z"/>
</svg>
